<?xml version="1.0" encoding="utf-8"?>
<!-- Generator: Adobe Illustrator 26.0.1, SVG Export Plug-In . SVG Version: 6.00 Build 0)  -->
<svg version="1.1" id="Ebene_1" xmlns="http://www.w3.org/2000/svg" xmlns:xlink="http://www.w3.org/1999/xlink" x="0px" y="0px"
	 viewBox="0 0 170 175" style="enable-background:new 0 0 170 175;" xml:space="preserve">
<style type="text/css">
	.st0{fill:#FFFFFF;}
	.st1{fill:#FFCC00;}
	.st2{fill:#FF0000;}
</style>
<g id="Hintergrund">
	<rect class="st0" width="170" height="175"/>
</g>
<g>
	<path d="M26.9,22.3c-0.3-0.2-0.7-0.3-1.1-0.3c-0.7,0-1.2,0.4-1.2,1.1c0,0.7,0.5,0.9,0.8,1.1l1,0.5c0.9,0.5,1.5,1,1.5,2
		c0,1.2-0.9,2.1-2.4,2.1c-1,0-1.8-0.4-1.9-0.4c0-0.3-0.1-1-0.1-1.2c0-0.4,0.1-0.5,0.4-0.5c0.1,0,0.2,0,0.2,0.1l0.3,1.1
		c0.2,0.2,0.7,0.3,1.1,0.3c0.9,0,1.3-0.5,1.3-1.1c0-0.7-0.5-0.9-1.4-1.5l-0.7-0.4c-0.7-0.4-1.3-0.9-1.3-1.9c0-1.2,1-2,2.3-2
		c0.9,0,1.4,0.3,1.7,0.4c0,0,0,0.9,0,1c0,0.3-0.1,0.5-0.4,0.5c-0.1,0-0.2,0-0.2,0L26.9,22.3z"/>
	<path d="M33.6,28.2l0.8,0.1c0,0,0,0,0,0.1c0,0.2-0.1,0.3-0.4,0.3l-1.4,0.1v-0.7h0c-0.2,0.2-0.6,0.8-1.6,0.8c-1.1,0-1.7-0.7-1.7-1.9
		v-2.7l-0.7-0.1c0,0,0-0.1,0-0.1c0-0.2,0.1-0.3,0.4-0.3l1.4-0.1V27c0,1,0.5,1.2,1,1.2c0.5,0,0.9-0.2,1.1-0.5v-3.3l-0.7-0.1
		c0,0,0-0.1,0-0.1c0-0.2,0.1-0.3,0.4-0.3l1.4-0.1V28.2z"/>
	<path d="M36.6,24.3L36.6,24.3c0.3-0.3,0.7-0.7,1.6-0.7c1.1,0,1.9,0.8,1.9,2.4c0,2-1.2,2.9-2.7,2.9c-0.3,0-0.5,0-0.7-0.1v1.5
		l0.6,0.1c0.1,0,0.1,0.1,0.1,0.1c0,0.1-0.1,0.3-0.1,0.3H35c0,0,0-0.1,0-0.1c0-0.2,0.1-0.3,0.3-0.3l0.4-0.1v-6l-0.7-0.1
		c0,0,0-0.1,0-0.1c0-0.2,0.1-0.3,0.4-0.3l1.4-0.1L36.6,24.3z M36.7,28c0.2,0.1,0.5,0.3,0.9,0.3c0.9,0,1.5-0.6,1.5-2.1
		c0-1.2-0.6-1.8-1.3-1.8c-0.5,0-0.8,0.2-1,0.4V28z"/>
	<path d="M42.7,24.3L42.7,24.3c0.3-0.3,0.7-0.7,1.6-0.7c1.1,0,1.9,0.8,1.9,2.4c0,2-1.2,2.9-2.7,2.9c-0.3,0-0.5,0-0.7-0.1v1.5
		l0.6,0.1c0.1,0,0.1,0.1,0.1,0.1c0,0.1-0.1,0.3-0.1,0.3H41c0,0,0-0.1,0-0.1c0-0.2,0.1-0.3,0.3-0.3l0.4-0.1v-6l-0.7-0.1
		c0,0,0-0.1,0-0.1c0-0.2,0.1-0.3,0.4-0.3l1.4-0.1L42.7,24.3z M42.7,28c0.2,0.1,0.5,0.3,0.9,0.3c0.9,0,1.5-0.6,1.5-2.1
		c0-1.2-0.6-1.8-1.3-1.8c-0.5,0-0.8,0.2-1,0.4V28z"/>
	<path d="M52.1,26.2c0,1.8-1.3,2.7-2.6,2.7c-1.3,0-2.4-0.8-2.4-2.6c0-1.8,1.3-2.7,2.6-2.7C51,23.6,52.1,24.4,52.1,26.2z M48.2,26.2
		c0,1.4,0.6,2,1.3,2c0.8,0,1.4-0.6,1.4-2c0-1.4-0.6-2.1-1.4-2.1C48.8,24.2,48.2,24.8,48.2,26.2z"/>
	<path d="M54.6,24.6L54.6,24.6c0.3-0.4,0.6-1,1.3-1c0.5,0,0.7,0.2,0.7,0.6c0,0.2-0.1,0.4-0.2,0.5c-0.1,0-0.3-0.2-0.7-0.2
		c-0.6,0-0.9,0.2-1.1,0.5v3.2l0.8,0.1c0.1,0,0.1,0.1,0.1,0.1c0,0.1-0.1,0.3-0.1,0.3h-2.6c0,0,0-0.1,0-0.1c0-0.2,0.1-0.3,0.3-0.3
		l0.4-0.1v-3.9l-0.7-0.1c0,0,0-0.1,0-0.1c0-0.2,0.1-0.3,0.4-0.3l1.4-0.1L54.6,24.6z"/>
	<path d="M60.3,24.3h-1.4v3.1c0,0.5,0.1,0.9,0.7,0.9c0.4,0,0.7-0.2,0.8-0.3c0.1,0.1,0.1,0.2,0.1,0.3c0,0.1-0.4,0.6-1.3,0.6
		c-1,0-1.3-0.6-1.3-1.4v-3.3H57c0,0,0-0.1,0-0.1c0-0.2,0.1-0.3,0.3-0.4l0.5-0.1l0.2-1.4h0.8v1.4h1.6L60.3,24.3z"/>
	<path d="M62.2,26.3c0,1.3,0.6,1.9,1.5,1.9c0.7,0,1.1-0.3,1.3-0.5c0.1,0.1,0.2,0.3,0.2,0.4c0,0.3-0.7,0.9-1.9,0.9
		c-1.3,0-2.3-0.7-2.3-2.6c0-1.8,1.1-2.8,2.3-2.8c1.2,0,1.8,0.7,1.8,1.8c0,0.3-0.1,0.6-0.1,0.9H62.2z M64.1,25.7
		c0-0.1,0.1-0.3,0.1-0.5c0-0.6-0.2-1.1-0.8-1.1c-0.6,0-1,0.5-1.1,1.5H64.1z"/>
	<path d="M70.7,28.2l0.8,0.1c0,0,0,0,0,0.1c0,0.2-0.1,0.3-0.4,0.3l-1.4,0.1v-0.7h0c-0.2,0.3-0.7,0.7-1.5,0.7c-1,0-2-0.7-2-2.5
		c0-2,1.4-2.8,2.7-2.8c0.3,0,0.6,0.1,0.7,0.1v-1.8l-0.7-0.1c0,0,0-0.1,0-0.1c0-0.2,0.1-0.3,0.4-0.3l1.4-0.1V28.2z M69.7,24.5
		c-0.2-0.1-0.4-0.3-0.9-0.3c-0.9,0-1.5,0.6-1.5,2c0,1.4,0.6,1.9,1.3,1.9c0.6,0,0.9-0.3,1.1-0.4V24.5z"/>
	<path d="M75.9,24.3L75.9,24.3c0.3-0.3,0.8-0.7,1.6-0.7c1,0,1.9,0.7,1.9,2.5c0,2-1.3,2.9-2.8,2.9c-0.9,0-1.5-0.2-1.8-0.4v-6.7
		l-0.7-0.1c0,0,0-0.1,0-0.1c0-0.2,0.1-0.3,0.4-0.3l1.4-0.1V24.3z M75.9,28c0.2,0.1,0.5,0.3,0.9,0.3c0.9,0,1.5-0.6,1.5-2
		c0-1.4-0.7-1.8-1.4-1.8c-0.5,0-0.8,0.2-1,0.4V28z"/>
	<path d="M84.8,24.2l-1.7,4.6c-0.6,1.6-1.3,2.2-2.2,2.2c-0.5,0-0.7-0.2-0.7-0.6c0-0.2,0.1-0.3,0.1-0.4c0.1,0.1,0.3,0.1,0.5,0.1
		c0.6,0,1.2-0.3,1.6-1.1l-2-4.7l-0.5-0.2c0,0,0-0.1,0-0.1c0-0.2,0.1-0.3,0.3-0.3h2c0.1,0,0.1,0,0.1,0.1s-0.1,0.2-0.1,0.3l-0.6,0.2
		l1.2,3.4h0l1.2-3.4l-0.8-0.2c0,0,0-0.1,0-0.1c0-0.2,0.1-0.3,0.3-0.3h1.7c0.1,0,0.1,0,0.1,0.1s-0.1,0.2-0.1,0.3L84.8,24.2z"/>
	<path d="M86.7,24.9c-0.4,0-0.7-0.3-0.7-0.6c0-0.4,0.3-0.7,0.7-0.7c0.4,0,0.7,0.3,0.7,0.7C87.4,24.6,87.1,24.9,86.7,24.9z
		 M86.7,28.9c-0.4,0-0.7-0.3-0.7-0.6c0-0.4,0.3-0.7,0.7-0.7c0.4,0,0.7,0.3,0.7,0.7C87.4,28.7,87.1,28.9,86.7,28.9z"/>
</g>
<g>
	<path d="M28.3,138.3c0,1.8-1.3,2.7-2.6,2.7c-1.3,0-2.4-0.8-2.4-2.6c0-1.8,1.3-2.7,2.6-2.7C27.3,135.7,28.3,136.5,28.3,138.3z
		 M24.5,138.3c0,1.4,0.6,2.1,1.4,2.1c0.8,0,1.4-0.6,1.4-2s-0.6-2.1-1.4-2.1C25.1,136.3,24.5,136.9,24.5,138.3z"/>
	<path d="M34.3,140.3l0.6,0.1c0.1,0,0.1,0.1,0.1,0.1c0,0.1-0.1,0.3-0.1,0.3h-2.4c0,0,0-0.1,0-0.1c0-0.2,0.1-0.3,0.3-0.3l0.4-0.1
		v-2.7c0-0.9-0.5-1.2-1-1.2c-0.6,0-1,0.3-1.2,0.5v3.4l0.6,0.1c0.1,0,0.1,0.1,0.1,0.1c0,0.1-0.1,0.3-0.1,0.3h-2.4c0,0,0-0.1,0-0.1
		c0-0.2,0.1-0.3,0.3-0.3l0.4-0.1v-3.9l-0.8-0.1c0,0,0-0.1,0-0.1c0-0.2,0.1-0.3,0.4-0.3l1.4-0.1l-0.1,0.7h0c0.3-0.3,0.8-0.8,1.7-0.8
		c1,0,1.6,0.7,1.6,1.9V140.3z"/>
	<path d="M41,136.4h-1.5v3.1c0,0.5,0.1,0.9,0.7,0.9c0.4,0,0.8-0.2,0.8-0.3c0.1,0.1,0.1,0.2,0.1,0.3s-0.4,0.6-1.3,0.6
		c-1,0-1.3-0.6-1.3-1.4v-3.3h-0.8c0,0,0-0.1,0-0.1c0-0.2,0.1-0.3,0.3-0.4l0.5-0.1l0.2-1.4h0.8v1.4h1.6L41,136.4z"/>
	<path d="M43.4,136.4L43.4,136.4c0.2-0.3,0.7-0.8,1.7-0.8c1.1,0,1.7,0.6,1.7,1.9v2.8l0.6,0.1c0.1,0,0.1,0.1,0.1,0.1
		c0,0.1-0.1,0.3-0.1,0.3H45c0,0,0-0.1,0-0.1c0-0.2,0.1-0.3,0.3-0.3l0.4-0.1v-2.7c0-0.9-0.5-1.2-1-1.2c-0.7,0-1,0.3-1.2,0.5v3.4
		l0.6,0.1c0.1,0,0.1,0.1,0.1,0.1c0,0.1-0.1,0.3-0.1,0.3h-2.4c0,0,0-0.1,0-0.1c0-0.2,0.1-0.3,0.3-0.3l0.4-0.1v-6.4l-0.8-0.1
		c0,0,0-0.1,0-0.1c0-0.2,0.1-0.3,0.4-0.3l1.5-0.1V136.4z"/>
	<path d="M49.3,138.4c0,1.3,0.6,1.9,1.5,1.9c0.7,0,1.1-0.3,1.3-0.5c0.1,0.1,0.2,0.3,0.2,0.4c0,0.3-0.7,0.9-1.9,0.9
		c-1.3,0-2.3-0.7-2.3-2.6s1.1-2.8,2.3-2.8c1.2,0,1.8,0.7,1.8,1.8c0,0.3-0.1,0.6-0.1,0.9H49.3z M51.1,137.8c0-0.1,0.1-0.3,0.1-0.5
		c0-0.6-0.2-1.1-0.8-1.1c-0.6,0-1,0.5-1.1,1.5H51.1z"/>
	<path d="M56.9,136.4L56.9,136.4c0.3-0.3,0.8-0.7,1.6-0.7c1,0,2,0.7,2,2.5c0,2-1.4,2.9-2.8,2.9c-1,0-1.5-0.2-1.8-0.4v-6.7l-0.7-0.1
		c0,0,0-0.1,0-0.1c0-0.2,0.1-0.3,0.4-0.3l1.4-0.1V136.4z M56.9,140.1c0.2,0.1,0.5,0.3,0.9,0.3c0.9,0,1.5-0.6,1.5-2
		c0-1.4-0.7-1.9-1.4-1.9c-0.5,0-0.8,0.2-1,0.4V140.1z"/>
	<path d="M65.1,139.8c0,0.4,0.2,0.6,0.3,0.6c0.2,0,0.4-0.1,0.4-0.2c0.1,0.1,0.1,0.2,0.1,0.3c0,0.1-0.3,0.6-1,0.6
		c-0.5,0-0.8-0.2-0.9-0.7h0c-0.1,0.2-0.5,0.8-1.4,0.8c-0.8,0-1.4-0.6-1.4-1.4c0-1.1,1.2-1.6,2.4-1.6h0.3v-0.5c0-1-0.3-1.3-0.9-1.3
		c-0.2,0-0.5,0.1-0.5,0.1c-0.1,0.2-0.2,0.6-0.2,0.9c0,0-0.2,0-0.2,0c-0.4,0-0.6-0.2-0.6-0.5c0-0.7,0.9-1.2,1.9-1.2
		c1.2,0,1.7,0.6,1.7,1.8V139.8z M63.8,138.6c-0.9,0-1.3,0.4-1.3,0.9c0,0.4,0.3,0.7,0.7,0.7c0.4,0,0.8-0.3,0.9-0.5v-1.2L63.8,138.6z"
		/>
	<path d="M69,136.4c-0.1-0.1-0.4-0.2-0.7-0.2c-0.4,0-0.7,0.1-0.7,0.6c0,0.5,0.5,0.7,1,1c0.6,0.4,1.3,0.8,1.3,1.6
		c0,0.9-0.7,1.5-1.9,1.5c-0.6,0-1.1-0.2-1.3-0.3c0-0.3-0.1-0.5-0.1-0.8c0-0.4,0.1-0.6,0.4-0.6c0.1,0,0.1,0,0.1,0l0.2,0.9
		c0.1,0.1,0.4,0.2,0.7,0.2c0.5,0,0.8-0.2,0.8-0.6c0-0.5-0.5-0.7-1-1c-0.6-0.4-1.3-0.8-1.3-1.7c0-0.8,0.7-1.4,1.7-1.4
		c0.6,0,1,0.2,1.2,0.4c0,0.1,0,0.4,0,0.6c0,0.4-0.1,0.6-0.5,0.6c-0.1,0-0.1,0-0.1,0L69,136.4z"/>
	<path d="M72.5,140.3l0.6,0.1c0.1,0,0.1,0.1,0.1,0.1c0,0.1-0.1,0.3-0.1,0.3h-2.4c0,0,0-0.1,0-0.1c0-0.2,0.1-0.3,0.3-0.3l0.4-0.1
		v-3.9l-0.8-0.1c0,0,0-0.1,0-0.1c0-0.2,0.1-0.3,0.4-0.3l1.4-0.1V140.3z M72,134.7c-0.4,0-0.7-0.3-0.7-0.7c0-0.4,0.3-0.7,0.7-0.7
		c0.4,0,0.7,0.3,0.7,0.7C72.7,134.4,72.4,134.7,72,134.7z"/>
	<path d="M76.5,136.4c-0.1-0.1-0.4-0.2-0.7-0.2c-0.4,0-0.7,0.1-0.7,0.6c0,0.5,0.5,0.7,1,1c0.6,0.4,1.3,0.8,1.3,1.6
		c0,0.9-0.7,1.5-1.9,1.5c-0.6,0-1.1-0.2-1.3-0.3c0-0.3-0.1-0.5-0.1-0.8c0-0.4,0.1-0.6,0.4-0.6c0.1,0,0.1,0,0.1,0l0.2,0.9
		c0.1,0.1,0.4,0.2,0.7,0.2c0.5,0,0.8-0.2,0.8-0.6c0-0.5-0.5-0.7-1-1c-0.6-0.4-1.3-0.8-1.3-1.7c0-0.8,0.7-1.4,1.7-1.4
		c0.6,0,1,0.2,1.2,0.4c0,0.1,0,0.4,0,0.6c0,0.4-0.1,0.6-0.5,0.6c-0.1,0-0.1,0-0.1,0L76.5,136.4z"/>
	<path d="M85.6,138.3c0,1.8-1.3,2.7-2.6,2.7c-1.3,0-2.4-0.8-2.4-2.6c0-1.8,1.3-2.7,2.6-2.7C84.6,135.7,85.6,136.5,85.6,138.3z
		 M81.7,138.3c0,1.4,0.6,2.1,1.4,2.1c0.8,0,1.4-0.6,1.4-2s-0.6-2.1-1.4-2.1C82.3,136.3,81.7,136.9,81.7,138.3z"/>
	<path d="M89.5,136.4h-1.3v4l0.7,0.1c0.1,0,0.1,0.1,0.1,0.1c0,0.1-0.1,0.3-0.1,0.3h-2.5c0,0,0-0.1,0-0.1c0-0.2,0.1-0.3,0.3-0.3
		l0.4-0.1v-4h-0.8c0,0,0-0.1,0-0.1c0-0.2,0.1-0.3,0.3-0.4l0.5-0.1v-0.1c0-1.7,1-2.5,2-2.5c0.5,0,0.7,0.2,0.7,0.6
		c0,0.3-0.2,0.4-0.3,0.5c-0.1-0.1-0.4-0.3-0.7-0.3c-0.5,0-0.6,0.3-0.6,0.9c0,0.3,0,1,0,1h1.4L89.5,136.4z"/>
	<path d="M96.3,139.8c0,0.4,0.2,0.6,0.3,0.6c0.2,0,0.4-0.1,0.4-0.2c0.1,0.1,0.1,0.2,0.1,0.3c0,0.1-0.3,0.6-1,0.6
		c-0.5,0-0.8-0.2-0.9-0.7h0c-0.1,0.2-0.5,0.8-1.4,0.8c-0.8,0-1.4-0.6-1.4-1.4c0-1.1,1.2-1.6,2.4-1.6h0.3v-0.5c0-1-0.3-1.3-0.9-1.3
		c-0.2,0-0.5,0.1-0.5,0.1c-0.1,0.2-0.2,0.6-0.2,0.9c0,0-0.2,0-0.2,0c-0.4,0-0.6-0.2-0.6-0.5c0-0.7,0.9-1.2,1.9-1.2
		c1.2,0,1.7,0.6,1.7,1.8V139.8z M95,138.6c-0.9,0-1.3,0.4-1.3,0.9c0,0.4,0.3,0.7,0.7,0.7s0.8-0.3,0.9-0.5v-1.2L95,138.6z"/>
	<path d="M104.6,140.3l0.8,0.1c0,0,0,0,0,0.1c0,0.2-0.1,0.3-0.4,0.3l-1.4,0.1v-0.7h0c-0.2,0.3-0.7,0.8-1.5,0.8c-1,0-2-0.7-2-2.5
		c0-2,1.4-2.9,2.7-2.9c0.3,0,0.6,0.1,0.8,0.1v-1.9l-0.8-0.1c0,0,0-0.1,0-0.1c0-0.2,0.1-0.3,0.4-0.3l1.4-0.1V140.3z M103.5,136.6
		c-0.2-0.1-0.4-0.3-0.9-0.3c-0.9,0-1.5,0.6-1.5,2c0,1.4,0.6,1.9,1.3,1.9c0.6,0,0.9-0.3,1.1-0.4V136.6z"/>
	<path d="M107.2,138.4c0,1.3,0.6,1.9,1.5,1.9c0.7,0,1.1-0.3,1.3-0.5c0.1,0.1,0.2,0.3,0.2,0.4c0,0.3-0.7,0.9-1.9,0.9
		c-1.3,0-2.3-0.7-2.3-2.6s1.1-2.8,2.3-2.8c1.2,0,1.8,0.7,1.8,1.8c0,0.3-0.1,0.6-0.1,0.9H107.2z M109.1,137.8c0-0.1,0.1-0.3,0.1-0.5
		c0-0.6-0.2-1.1-0.8-1.1c-0.6,0-1,0.5-1.1,1.5H109.1z"/>
	<path d="M113.7,136.3c-0.7,0-1.3,0.5-1.3,1.9c0,1.3,0.5,2.1,1.5,2.1c0.7,0,1-0.3,1.2-0.5c0.1,0.1,0.2,0.3,0.2,0.4
		c0,0.3-0.6,0.9-1.7,0.9c-1.4,0-2.3-0.9-2.3-2.6c0-1.8,1.2-2.8,2.6-2.8c1.2,0,1.5,0.6,1.5,0.9c0,0.3-0.1,0.6-0.5,0.6
		C114.6,136.8,114.4,136.3,113.7,136.3z"/>
	<path d="M117.8,140.3l0.6,0.1c0.1,0,0.1,0.1,0.1,0.1c0,0.1-0.1,0.3-0.1,0.3H116c0,0,0-0.1,0-0.1c0-0.2,0.1-0.3,0.3-0.3l0.4-0.1
		v-3.9l-0.8-0.1c0,0,0-0.1,0-0.1c0-0.2,0.1-0.3,0.4-0.3l1.4-0.1V140.3z M117.3,134.7c-0.4,0-0.7-0.3-0.7-0.7c0-0.4,0.3-0.7,0.7-0.7
		c0.4,0,0.7,0.3,0.7,0.7C118,134.4,117.6,134.7,117.3,134.7z"/>
	<path d="M121.7,136.4c-0.1-0.1-0.4-0.2-0.7-0.2c-0.4,0-0.7,0.1-0.7,0.6c0,0.5,0.5,0.7,1,1c0.6,0.4,1.3,0.8,1.3,1.6
		c0,0.9-0.7,1.5-1.9,1.5c-0.6,0-1.1-0.2-1.3-0.3c0-0.3-0.1-0.5-0.1-0.8c0-0.4,0.1-0.6,0.4-0.6c0.1,0,0.1,0,0.1,0l0.2,0.9
		c0.1,0.1,0.4,0.2,0.7,0.2c0.5,0,0.8-0.2,0.8-0.6c0-0.5-0.5-0.7-1-1c-0.6-0.4-1.3-0.8-1.3-1.7c0-0.8,0.7-1.4,1.7-1.4
		c0.6,0,1,0.2,1.2,0.4c0,0.1,0,0.4,0,0.6c0,0.4-0.1,0.6-0.5,0.6c-0.1,0-0.1,0-0.1,0L121.7,136.4z"/>
	<path d="M125.3,140.3l0.6,0.1c0.1,0,0.1,0.1,0.1,0.1c0,0.1-0.1,0.3-0.1,0.3h-2.4c0,0,0-0.1,0-0.1c0-0.2,0.1-0.3,0.3-0.3l0.4-0.1
		v-3.9l-0.8-0.1c0,0,0-0.1,0-0.1c0-0.2,0.1-0.3,0.4-0.3l1.4-0.1V140.3z M124.7,134.7c-0.4,0-0.7-0.3-0.7-0.7c0-0.4,0.3-0.7,0.7-0.7
		c0.4,0,0.7,0.3,0.7,0.7C125.4,134.4,125.1,134.7,124.7,134.7z"/>
	<path d="M131.7,138.3c0,1.8-1.3,2.7-2.6,2.7c-1.3,0-2.4-0.8-2.4-2.6c0-1.8,1.3-2.7,2.6-2.7C130.7,135.7,131.7,136.5,131.7,138.3z
		 M127.9,138.3c0,1.4,0.6,2.1,1.4,2.1c0.8,0,1.4-0.6,1.4-2s-0.6-2.1-1.4-2.1C128.4,136.3,127.9,136.9,127.9,138.3z"/>
	<path d="M137.7,140.3l0.6,0.1c0.1,0,0.1,0.1,0.1,0.1c0,0.1-0.1,0.3-0.1,0.3h-2.4c0,0,0-0.1,0-0.1c0-0.2,0.1-0.3,0.3-0.3l0.4-0.1
		v-2.7c0-0.9-0.5-1.2-1-1.2c-0.6,0-1,0.3-1.2,0.5v3.4l0.6,0.1c0.1,0,0.1,0.1,0.1,0.1c0,0.1-0.1,0.3-0.1,0.3h-2.4c0,0,0-0.1,0-0.1
		c0-0.2,0.1-0.3,0.3-0.3l0.4-0.1v-3.9l-0.8-0.1c0,0,0-0.1,0-0.1c0-0.2,0.1-0.3,0.4-0.3l1.4-0.1l-0.1,0.7h0c0.3-0.3,0.8-0.8,1.7-0.8
		c1,0,1.6,0.7,1.6,1.9V140.3z"/>
	<path d="M24.7,148.4L24.7,148.4c0.3-0.3,0.8-0.7,1.6-0.7c1,0,2,0.7,2,2.5c0,2-1.4,2.9-2.8,2.9c-1,0-1.5-0.2-1.8-0.4v-6.7l-0.7-0.1
		c0,0,0-0.1,0-0.1c0-0.2,0.1-0.3,0.4-0.3l1.4-0.1V148.4z M24.7,152.1c0.2,0.1,0.5,0.3,0.9,0.3c0.9,0,1.5-0.6,1.5-2
		c0-1.4-0.7-1.9-1.4-1.9c-0.5,0-0.8,0.2-1,0.4V152.1z"/>
	<path d="M33.7,148.3L32,153c-0.6,1.6-1.3,2.2-2.2,2.2c-0.5,0-0.7-0.2-0.7-0.6c0-0.2,0.1-0.4,0.1-0.4c0.1,0.1,0.3,0.1,0.5,0.1
		c0.6,0,1.2-0.3,1.6-1.1l-2-4.8l-0.5-0.2c0,0,0-0.1,0-0.1c0-0.2,0.1-0.3,0.3-0.3h2c0.1,0,0.1,0,0.1,0.1c0,0.1-0.1,0.2-0.1,0.3
		l-0.6,0.2l1.3,3.5h0l1.2-3.4l-0.8-0.2c0,0,0-0.1,0-0.1c0-0.2,0.1-0.3,0.3-0.3h1.7c0.1,0,0.1,0,0.1,0.1c0,0.1-0.1,0.2-0.1,0.3
		L33.7,148.3z"/>
	<path d="M39.9,148.4h-1.5v3.1c0,0.5,0.1,0.9,0.7,0.9c0.4,0,0.8-0.2,0.8-0.3c0.1,0.1,0.1,0.2,0.1,0.3s-0.4,0.6-1.3,0.6
		c-1,0-1.3-0.6-1.3-1.4v-3.3h-0.8c0,0,0-0.1,0-0.1c0-0.2,0.1-0.3,0.3-0.4l0.5-0.1l0.2-1.4h0.8v1.4H40L39.9,148.4z"/>
	<path d="M42.2,148.4L42.2,148.4c0.2-0.3,0.7-0.8,1.7-0.8c1.1,0,1.7,0.6,1.7,1.9v2.8l0.6,0.1c0.1,0,0.1,0.1,0.1,0.1
		c0,0.1-0.1,0.3-0.1,0.3h-2.4c0,0,0-0.1,0-0.1c0-0.2,0.1-0.3,0.3-0.3l0.3-0.1v-2.7c0-0.9-0.5-1.2-1-1.2c-0.7,0-1,0.3-1.2,0.5v3.4
		l0.6,0.1c0.1,0,0.1,0.1,0.1,0.1c0,0.1-0.1,0.3-0.1,0.3h-2.4c0,0,0-0.1,0-0.1c0-0.2,0.1-0.3,0.3-0.3l0.4-0.1v-6.4l-0.8-0.1
		c0,0,0-0.1,0-0.1c0-0.2,0.1-0.3,0.4-0.3l1.5-0.1V148.4z"/>
	<path d="M48.1,150.4c0,1.3,0.6,1.9,1.5,1.9c0.7,0,1.1-0.3,1.3-0.5c0.1,0.1,0.2,0.3,0.2,0.4c0,0.3-0.7,0.9-1.9,0.9
		c-1.3,0-2.3-0.7-2.3-2.6s1.1-2.8,2.3-2.8c1.2,0,1.8,0.7,1.8,1.8c0,0.3-0.1,0.6-0.1,0.9H48.1z M50,149.8c0-0.1,0.1-0.3,0.1-0.5
		c0-0.6-0.2-1.1-0.8-1.1c-0.6,0-1,0.5-1.1,1.5H50z"/>
	<path d="M59.5,146.5c-0.2-0.1-0.7-0.3-1.3-0.3c-1.3,0-2.6,0.8-2.6,3c0,2.1,1,3.2,2.4,3.2c0.5,0,0.9-0.1,1.2-0.2V150l-0.6-0.1
		c-0.1,0-0.1-0.1-0.1-0.1c0-0.1,0.1-0.2,0.1-0.3H61c0,0,0,0.1,0,0.1c0,0.2-0.1,0.3-0.4,0.4l-0.2,0.1v2.2c-0.3,0.3-1.1,0.8-2.6,0.8
		c-1.9,0-3.3-1.2-3.3-3.7c0-2.8,2-3.8,3.8-3.8c1.1,0,1.7,0.3,2,0.5c0,0.3,0.1,1,0.1,1.1c0,0.3-0.1,0.5-0.4,0.5c-0.1,0-0.2,0-0.2,0
		L59.5,146.5z"/>
	<path d="M63,150.4c0,1.3,0.6,1.9,1.5,1.9c0.7,0,1.1-0.3,1.3-0.5c0.1,0.1,0.2,0.3,0.2,0.4c0,0.3-0.7,0.9-1.9,0.9
		c-1.3,0-2.3-0.7-2.3-2.6s1.1-2.8,2.3-2.8c1.2,0,1.8,0.7,1.8,1.8c0,0.3-0.1,0.6-0.1,0.9H63z M64.8,149.8c0-0.1,0.1-0.3,0.1-0.5
		c0-0.6-0.2-1.1-0.8-1.1c-0.6,0-1,0.5-1.1,1.5H64.8z"/>
	<path d="M68.6,148.7L68.6,148.7c0.3-0.4,0.6-1,1.3-1c0.5,0,0.7,0.2,0.7,0.6c0,0.2-0.1,0.4-0.2,0.5c-0.1,0-0.3-0.2-0.7-0.2
		c-0.6,0-0.9,0.2-1.1,0.5v3.2l0.8,0.1c0.1,0,0.1,0.1,0.1,0.1c0,0.1-0.1,0.3-0.1,0.3h-2.6c0,0,0-0.1,0-0.1c0-0.2,0.1-0.3,0.3-0.3
		l0.4-0.1v-3.9l-0.8-0.1c0,0,0-0.1,0-0.1c0-0.2,0.1-0.3,0.4-0.3l1.4-0.1L68.6,148.7z"/>
	<path d="M79.4,152.4l0.6,0.1c0.1,0,0.1,0.1,0.1,0.1c0,0.1-0.1,0.3-0.1,0.3h-2.4c0,0,0-0.1,0-0.1c0-0.2,0.1-0.3,0.3-0.3l0.4-0.1
		v-2.7c0-0.9-0.5-1.2-1-1.2c-0.6,0-1,0.3-1.3,0.5c0,0.2,0.1,0.4,0.1,0.6v2.8l0.6,0.1c0.1,0,0.1,0.1,0.1,0.1c0,0.1-0.1,0.3-0.1,0.3
		h-2.4c0,0,0-0.1,0-0.1c0-0.2,0.1-0.3,0.3-0.3l0.4-0.1v-2.7c0-0.9-0.4-1.2-0.9-1.2c-0.6,0-0.9,0.2-1.2,0.4v3.4l0.6,0.1
		c0.1,0,0.1,0.1,0.1,0.1c0,0.1-0.1,0.3-0.1,0.3h-2.4c0,0,0-0.1,0-0.1c0-0.2,0.1-0.3,0.3-0.3l0.4-0.1v-3.9l-0.8-0.1c0,0,0-0.1,0-0.1
		c0-0.2,0.1-0.3,0.4-0.3l1.4-0.1l-0.1,0.7h0c0.2-0.2,0.7-0.8,1.7-0.8c0.6,0,1.1,0.3,1.4,0.9c0.3-0.3,0.8-0.9,1.8-0.9
		c1,0,1.6,0.6,1.6,1.9V152.4z"/>
	<path d="M84.5,151.8c0,0.4,0.2,0.6,0.3,0.6c0.2,0,0.4-0.1,0.4-0.2c0.1,0.1,0.1,0.2,0.1,0.3c0,0.1-0.3,0.6-1,0.6
		c-0.5,0-0.8-0.2-0.9-0.7h0c-0.1,0.2-0.5,0.8-1.4,0.8c-0.8,0-1.4-0.6-1.4-1.4c0-1.1,1.2-1.6,2.4-1.6h0.3v-0.5c0-1-0.3-1.3-0.9-1.3
		c-0.2,0-0.5,0.1-0.5,0.1c-0.1,0.2-0.2,0.6-0.2,0.9c0,0-0.2,0-0.2,0c-0.4,0-0.6-0.2-0.6-0.5c0-0.7,0.9-1.2,1.9-1.2
		c1.2,0,1.7,0.6,1.7,1.8V151.8z M83.2,150.6c-0.9,0-1.3,0.4-1.3,0.9c0,0.4,0.3,0.7,0.7,0.7c0.4,0,0.8-0.3,0.9-0.5v-1.2L83.2,150.6z"
		/>
	<path d="M90.9,152.4l0.6,0.1c0.1,0,0.1,0.1,0.1,0.1c0,0.1-0.1,0.3-0.1,0.3h-2.4c0,0,0-0.1,0-0.1c0-0.2,0.1-0.3,0.3-0.3l0.4-0.1
		v-2.7c0-0.9-0.5-1.2-1-1.2c-0.6,0-1,0.3-1.2,0.5v3.4l0.6,0.1c0.1,0,0.1,0.1,0.1,0.1c0,0.1-0.1,0.3-0.1,0.3h-2.4c0,0,0-0.1,0-0.1
		c0-0.2,0.1-0.3,0.3-0.3l0.4-0.1v-3.9l-0.8-0.1c0,0,0-0.1,0-0.1c0-0.2,0.1-0.3,0.4-0.3l1.4-0.1l-0.1,0.7h0c0.3-0.3,0.8-0.8,1.7-0.8
		c1,0,1.6,0.7,1.6,1.9V152.4z"/>
	<path d="M98.6,149.1L98.6,149.1c1,0.2,1.7,0.8,1.7,1.7c0,1.2-1,2-2.9,2h-2.7c0,0,0-0.1,0-0.1c0-0.2,0.1-0.3,0.4-0.4l0.4-0.1v-6.1
		l-0.6-0.1c-0.1,0-0.1-0.1-0.1-0.1c0-0.1,0.1-0.2,0.1-0.3h2.5c1.9,0,2.8,0.7,2.8,1.8C100.1,148.5,99.5,148.9,98.6,149.1z
		 M97.2,146.3h-0.6v2.7h0.6c1.2,0,1.7-0.6,1.7-1.3C98.9,146.7,98.4,146.3,97.2,146.3z M97.3,149.5h-0.7v2.7h0.6
		c1.2,0,1.8-0.6,1.8-1.4C99.1,150.1,98.5,149.5,97.3,149.5z"/>
	<path d="M106.1,152.3l0.8,0.1c0,0,0,0,0,0.1c0,0.2-0.1,0.3-0.4,0.3l-1.4,0.1v-0.7h0c-0.2,0.2-0.6,0.8-1.6,0.8
		c-1.1,0-1.7-0.7-1.7-1.9v-2.7l-0.8-0.1c0,0,0-0.1,0-0.1c0-0.2,0.1-0.3,0.4-0.3l1.4-0.1v3.3c0,1,0.5,1.2,1,1.2
		c0.5,0,0.9-0.2,1.1-0.5v-3.3l-0.8-0.1c0,0,0-0.1,0-0.1c0-0.2,0.1-0.3,0.4-0.3l1.4-0.1V152.3z"/>
	<path d="M112.5,152.4l0.6,0.1c0.1,0,0.1,0.1,0.1,0.1c0,0.1-0.1,0.3-0.1,0.3h-2.4c0,0,0-0.1,0-0.1c0-0.2,0.1-0.3,0.3-0.3l0.4-0.1
		v-2.7c0-0.9-0.5-1.2-1-1.2c-0.6,0-1,0.3-1.2,0.5v3.4l0.6,0.1c0.1,0,0.1,0.1,0.1,0.1c0,0.1-0.1,0.3-0.1,0.3h-2.4c0,0,0-0.1,0-0.1
		c0-0.2,0.1-0.3,0.3-0.3l0.4-0.1v-3.9l-0.8-0.1c0,0,0-0.1,0-0.1c0-0.2,0.1-0.3,0.4-0.3l1.4-0.1l-0.1,0.7h0c0.3-0.3,0.8-0.8,1.7-0.8
		c1,0,1.6,0.7,1.6,1.9V152.4z"/>
	<path d="M118.5,152.3l0.8,0.1c0,0,0,0,0,0.1c0,0.2-0.1,0.3-0.4,0.3l-1.4,0.1v-0.7h0c-0.2,0.3-0.7,0.8-1.5,0.8c-1,0-2-0.7-2-2.5
		c0-2,1.4-2.9,2.7-2.9c0.3,0,0.6,0.1,0.8,0.1v-1.9l-0.8-0.1c0,0,0-0.1,0-0.1c0-0.2,0.1-0.3,0.4-0.3l1.4-0.1V152.3z M117.5,148.6
		c-0.2-0.1-0.4-0.3-0.9-0.3c-0.9,0-1.5,0.6-1.5,2c0,1.4,0.6,1.9,1.3,1.9c0.6,0,0.9-0.3,1.1-0.4V148.6z"/>
	<path d="M121.1,150.4c0,1.3,0.6,1.9,1.5,1.9c0.7,0,1.1-0.3,1.3-0.5c0.1,0.1,0.2,0.3,0.2,0.4c0,0.3-0.7,0.9-1.9,0.9
		c-1.3,0-2.3-0.7-2.3-2.6s1.1-2.8,2.3-2.8c1.2,0,1.8,0.7,1.8,1.8c0,0.3-0.1,0.6-0.1,0.9H121.1z M123,149.8c0-0.1,0.1-0.3,0.1-0.5
		c0-0.6-0.2-1.1-0.8-1.1c-0.6,0-1,0.5-1.1,1.5H123z"/>
	<path d="M127.6,148.5c-0.1-0.1-0.4-0.2-0.7-0.2c-0.4,0-0.7,0.1-0.7,0.6c0,0.5,0.5,0.7,1,1c0.6,0.4,1.3,0.8,1.3,1.6
		c0,0.9-0.7,1.5-1.9,1.5c-0.6,0-1.1-0.2-1.3-0.3c0-0.3-0.1-0.5-0.1-0.8c0-0.4,0.1-0.6,0.4-0.6c0.1,0,0.1,0,0.1,0l0.2,0.9
		c0.1,0.1,0.4,0.2,0.7,0.2c0.5,0,0.8-0.2,0.8-0.6c0-0.5-0.5-0.7-1-1c-0.6-0.4-1.3-0.8-1.3-1.7c0-0.8,0.7-1.4,1.7-1.4
		c0.6,0,1,0.2,1.2,0.4c0,0.1,0,0.4,0,0.6c0,0.4-0.1,0.6-0.5,0.6c-0.1,0-0.1,0-0.1,0L127.6,148.5z"/>
	<path d="M132.5,148.4H131v3.1c0,0.5,0.1,0.9,0.7,0.9c0.4,0,0.8-0.2,0.8-0.3c0.1,0.1,0.1,0.2,0.1,0.3s-0.4,0.6-1.3,0.6
		c-1,0-1.3-0.6-1.3-1.4v-3.3h-0.8c0,0,0-0.1,0-0.1c0-0.2,0.1-0.3,0.3-0.4l0.5-0.1l0.2-1.4h0.8v1.4h1.6L132.5,148.4z"/>
	<path d="M136.9,151.8c0,0.4,0.2,0.6,0.3,0.6c0.2,0,0.4-0.1,0.4-0.2c0.1,0.1,0.1,0.2,0.1,0.3c0,0.1-0.3,0.6-1,0.6
		c-0.5,0-0.8-0.2-0.9-0.7h0c-0.1,0.2-0.5,0.8-1.4,0.8c-0.8,0-1.4-0.6-1.4-1.4c0-1.1,1.2-1.6,2.4-1.6h0.3v-0.5c0-1-0.3-1.3-0.9-1.3
		c-0.2,0-0.5,0.1-0.5,0.1c-0.1,0.2-0.2,0.6-0.2,0.9c0,0-0.2,0-0.2,0c-0.4,0-0.6-0.2-0.6-0.5c0-0.7,0.9-1.2,1.9-1.2
		c1.2,0,1.7,0.6,1.7,1.8V151.8z M135.6,150.6c-0.9,0-1.3,0.4-1.3,0.9c0,0.4,0.3,0.7,0.7,0.7s0.8-0.3,0.9-0.5v-1.2L135.6,150.6z"/>
	<path d="M143.1,148.4h-0.9c0.2,0.3,0.3,0.6,0.3,1c0,1.1-0.9,1.8-2.1,1.8c-0.2,0-0.3,0-0.5-0.1c-0.1,0.1-0.3,0.2-0.3,0.5
		c0,0.3,0.2,0.4,0.5,0.4h1.2c1,0,1.5,0.4,1.5,1.2c0,1.1-1,2-2.8,2c-1.3,0-1.9-0.5-1.9-1.2c0-0.7,0.6-1.1,1-1.2v0
		c-0.3-0.1-0.4-0.4-0.4-0.7c0-0.6,0.6-0.9,0.8-1v0c-0.6-0.3-1-0.8-1-1.6c0-1.1,0.9-1.7,2-1.7c0.3,0,0.6,0,0.8,0.1h1.9L143.1,148.4z
		 M140,152.9c-0.1,0-0.3,0-0.4,0c-0.3,0.2-0.5,0.4-0.5,0.8c0,0.6,0.3,0.9,1.1,0.9c1,0,1.7-0.5,1.7-1c0-0.4-0.2-0.6-0.8-0.6H140z
		 M139.6,149.4c0,0.8,0.4,1.2,1,1.2c0.6,0,1-0.3,1-1.2c0-0.8-0.4-1.1-1-1.1C140,148.3,139.6,148.6,139.6,149.4z"/>
</g>
<path d="M63.4,59.5v-8.2h4l-0.1,0.8h-2.9v3h2.7v0.8h-2.7v3.5H63.4z M72.1,55.7c0,0.2,0,0.5,0,0.6c0,0.2,0,0.3,0,0.5h-2.9
	c0,0.7,0.2,1.2,0.4,1.5c0.3,0.3,0.6,0.5,1.1,0.5c0.2,0,0.3,0,0.5-0.1c0.1,0,0.3-0.1,0.4-0.1c0.1-0.1,0.2-0.1,0.2-0.2
	c0.1-0.1,0.1-0.1,0.1-0.1l0.4,0.7c0,0-0.1,0.1-0.2,0.2c-0.1,0.1-0.2,0.2-0.3,0.2c-0.1,0.1-0.3,0.1-0.5,0.2s-0.4,0.1-0.7,0.1
	c-0.4,0-0.7-0.1-1-0.2c-0.3-0.1-0.5-0.3-0.7-0.6s-0.4-0.6-0.5-1c-0.1-0.4-0.2-0.8-0.2-1.4c0-0.5,0.1-0.9,0.2-1.3
	c0.1-0.4,0.3-0.7,0.5-0.9c0.2-0.2,0.4-0.4,0.7-0.5c0.3-0.1,0.5-0.2,0.8-0.2c0.5,0,1,0.2,1.3,0.5C71.9,54.5,72.1,55,72.1,55.7z
	 M70.2,54.4c-0.3,0-0.6,0.1-0.8,0.4c-0.2,0.3-0.3,0.7-0.4,1.2h2.1c0,0,0-0.1,0-0.2c0-0.1,0-0.2,0-0.2c0-0.4-0.1-0.7-0.2-0.9
	C70.8,54.5,70.5,54.4,70.2,54.4z M73.1,56.7c0-0.6,0.1-1.1,0.2-1.5c0.2-0.4,0.3-0.7,0.6-0.9c0.2-0.2,0.5-0.4,0.8-0.5
	c0.3-0.1,0.6-0.1,0.9-0.1c0.2,0,0.3,0,0.5,0c0.1,0,0.2,0.1,0.3,0.1v-2.7l1-0.1v8.5h-0.9v-0.6h0c0,0-0.1,0.1-0.1,0.2
	c-0.1,0.1-0.2,0.2-0.3,0.2c-0.1,0.1-0.2,0.2-0.4,0.2c-0.2,0.1-0.4,0.1-0.6,0.1c-0.3,0-0.5-0.1-0.8-0.2c-0.2-0.1-0.5-0.3-0.6-0.5
	c-0.2-0.2-0.3-0.5-0.4-0.9C73.1,57.7,73.1,57.2,73.1,56.7z M75.3,58.8c0.2,0,0.3,0,0.4-0.1c0.1,0,0.2-0.1,0.3-0.1
	c0.1-0.1,0.2-0.1,0.2-0.2c0.1-0.1,0.1-0.1,0.1-0.2v-3.5c-0.1-0.1-0.2-0.1-0.3-0.1c-0.1,0-0.3-0.1-0.4-0.1c-0.2,0-0.4,0-0.6,0.1
	c-0.2,0.1-0.4,0.2-0.5,0.4s-0.3,0.4-0.3,0.7c-0.1,0.3-0.1,0.6-0.1,1c0,0.4,0,0.7,0.1,1c0.1,0.3,0.2,0.5,0.3,0.6
	c0.1,0.2,0.3,0.3,0.4,0.4C75,58.7,75.2,58.8,75.3,58.8z M82.5,55.7c0,0.2,0,0.5,0,0.6c0,0.2,0,0.3,0,0.5h-2.9c0,0.7,0.2,1.2,0.4,1.5
	c0.3,0.3,0.6,0.5,1.1,0.5c0.2,0,0.3,0,0.5-0.1c0.1,0,0.3-0.1,0.4-0.1c0.1-0.1,0.2-0.1,0.2-0.2c0.1-0.1,0.1-0.1,0.1-0.1l0.4,0.7
	c0,0-0.1,0.1-0.2,0.2c-0.1,0.1-0.2,0.2-0.3,0.2c-0.1,0.1-0.3,0.1-0.5,0.2c-0.2,0.1-0.4,0.1-0.7,0.1c-0.4,0-0.7-0.1-1-0.2
	c-0.3-0.1-0.5-0.3-0.7-0.6s-0.4-0.6-0.5-1c-0.1-0.4-0.2-0.8-0.2-1.4c0-0.5,0.1-0.9,0.2-1.3c0.1-0.4,0.3-0.7,0.5-0.9
	c0.2-0.2,0.4-0.4,0.7-0.5c0.3-0.1,0.5-0.2,0.8-0.2c0.5,0,1,0.2,1.3,0.5C82.4,54.5,82.5,55,82.5,55.7z M80.7,54.4
	c-0.3,0-0.6,0.1-0.8,0.4c-0.2,0.3-0.3,0.7-0.4,1.2h2.1c0,0,0-0.1,0-0.2c0-0.1,0-0.2,0-0.2c0-0.4-0.1-0.7-0.2-0.9
	C81.2,54.5,81,54.4,80.7,54.4z M86.3,54.6c0,0-0.1,0-0.2-0.1s-0.2,0-0.3,0c-0.3,0-0.5,0.1-0.7,0.2c-0.2,0.2-0.3,0.3-0.4,0.5v4.2h-1
	v-5.7h0.9v0.8h0c0-0.1,0.1-0.2,0.2-0.3s0.1-0.2,0.2-0.3c0.1-0.1,0.2-0.1,0.3-0.2c0.1,0,0.3-0.1,0.5-0.1c0.1,0,0.2,0,0.3,0
	c0.1,0,0.1,0,0.2,0.1L86.3,54.6z M86.9,58c0-0.3,0.1-0.6,0.2-0.8s0.3-0.4,0.5-0.5c0.2-0.1,0.5-0.2,0.8-0.3c0.3-0.1,0.6-0.1,0.9-0.1
	h0.3v-0.5c0-0.5-0.1-0.8-0.3-1c-0.2-0.2-0.4-0.3-0.7-0.3c-0.3,0-0.5,0.1-0.7,0.2c-0.2,0.1-0.3,0.2-0.5,0.3L87,54.3
	c0.1-0.1,0.1-0.1,0.2-0.2c0.1-0.1,0.2-0.2,0.4-0.2s0.3-0.1,0.5-0.2c0.2,0,0.4-0.1,0.6-0.1c0.6,0,1,0.2,1.3,0.5
	c0.3,0.3,0.5,0.8,0.5,1.6v2.6c0,0.2,0,0.5,0,0.7c0,0.2,0,0.4,0,0.5h-0.9l0-0.6h0c0,0.1-0.1,0.2-0.1,0.2c-0.1,0.1-0.1,0.2-0.2,0.2
	c-0.1,0.1-0.2,0.1-0.3,0.2c-0.1,0.1-0.3,0.1-0.5,0.1c-0.2,0-0.4,0-0.6-0.1c-0.2-0.1-0.3-0.2-0.5-0.3c-0.1-0.1-0.2-0.3-0.3-0.5
	C86.9,58.5,86.9,58.3,86.9,58z M88.6,58.8c0.1,0,0.3,0,0.4-0.1c0.1,0,0.2-0.1,0.3-0.1c0.1-0.1,0.1-0.1,0.2-0.2
	c0.1-0.1,0.1-0.1,0.1-0.2V57l-0.3,0c-0.5,0-0.8,0.1-1,0.2s-0.4,0.4-0.4,0.7c0,0.3,0.1,0.5,0.2,0.7C88.2,58.7,88.4,58.8,88.6,58.8z
	 M92.9,58.1c0,0.2,0,0.4,0.1,0.5c0.1,0.1,0.2,0.1,0.4,0.1c0.1,0,0.2,0,0.2,0s0.1,0,0.1,0l0.1,0.7c0,0-0.1,0.1-0.3,0.1
	s-0.3,0.1-0.5,0.1c-0.3,0-0.6-0.1-0.8-0.3c-0.2-0.2-0.3-0.6-0.3-1.1v-7.2l1-0.1V58.1z M104.2,51.3v8.2h-1v-3.9c0-0.2,0-0.5,0-0.7
	s0-0.5,0-0.7c0-0.2,0-0.4,0-0.5c0-0.2,0-0.3,0-0.4h0c0,0.2-0.1,0.5-0.2,0.9c-0.1,0.4-0.3,0.8-0.4,1.3l-1.4,4h-0.8l-1.4-4
	c-0.2-0.5-0.3-0.9-0.4-1.3c-0.1-0.4-0.2-0.7-0.2-0.9h0c0,0.1,0,0.2,0,0.4c0,0.2,0,0.3,0,0.5c0,0.2,0,0.4,0,0.7s0,0.5,0,0.7v3.9h-1
	v-8.2h1.2l1.9,5.7c0.1,0.3,0.2,0.5,0.2,0.8c0.1,0.2,0.1,0.5,0.1,0.6h0c0-0.2,0-0.4,0.1-0.6c0.1-0.2,0.1-0.5,0.2-0.8l1.9-5.7H104.2z
	 M106.9,59.5h-1v-5.7h1V59.5z M106.4,52.4c-0.2,0-0.4-0.1-0.5-0.2c-0.1-0.1-0.2-0.3-0.2-0.5c0-0.2,0.1-0.4,0.2-0.5
	c0.1-0.1,0.3-0.2,0.5-0.2c0.2,0,0.3,0.1,0.5,0.2c0.1,0.1,0.2,0.3,0.2,0.5c0,0.2-0.1,0.4-0.2,0.5C106.7,52.3,106.6,52.4,106.4,52.4z
	 M111.5,59.5v-3.7c0-0.5-0.1-0.8-0.2-1c-0.2-0.2-0.4-0.3-0.7-0.3c-0.3,0-0.5,0.1-0.7,0.2s-0.3,0.3-0.5,0.4v4.4h-1v-5.7h0.9v0.6h0
	c0,0,0.1-0.1,0.2-0.2c0.1-0.1,0.2-0.2,0.3-0.3c0.1-0.1,0.3-0.2,0.5-0.2s0.4-0.1,0.6-0.1c0.3,0,0.5,0,0.7,0.1
	c0.2,0.1,0.4,0.2,0.5,0.4s0.3,0.4,0.3,0.6c0.1,0.3,0.1,0.6,0.1,1v3.7H111.5z M114.8,59.5h-1v-5.7h1V59.5z M114.4,52.4
	c-0.2,0-0.4-0.1-0.5-0.2c-0.1-0.1-0.2-0.3-0.2-0.5c0-0.2,0.1-0.4,0.2-0.5c0.1-0.1,0.3-0.2,0.5-0.2c0.2,0,0.3,0.1,0.5,0.2
	c0.1,0.1,0.2,0.3,0.2,0.5c0,0.2-0.1,0.4-0.2,0.5C114.7,52.3,114.6,52.4,114.4,52.4z M118.8,54.9c-0.1-0.1-0.2-0.2-0.3-0.3
	c-0.2-0.1-0.4-0.2-0.7-0.2c-0.3,0-0.4,0.1-0.6,0.2c-0.1,0.1-0.2,0.3-0.2,0.4c0,0.2,0.1,0.4,0.2,0.5c0.1,0.1,0.3,0.3,0.6,0.4l0.4,0.2
	c0.4,0.2,0.7,0.5,0.9,0.7c0.2,0.3,0.3,0.6,0.3,1c0,0.5-0.2,0.8-0.5,1.1c-0.3,0.3-0.8,0.5-1.4,0.5c-0.2,0-0.4,0-0.6-0.1
	s-0.3-0.1-0.5-0.2c-0.1-0.1-0.2-0.1-0.3-0.2c-0.1-0.1-0.2-0.1-0.2-0.2l0.5-0.8c0,0,0.1,0.1,0.2,0.2c0.1,0.1,0.1,0.1,0.2,0.2
	c0.1,0.1,0.2,0.1,0.3,0.1c0.1,0,0.3,0.1,0.4,0.1c0.3,0,0.5-0.1,0.7-0.2c0.2-0.1,0.2-0.3,0.2-0.5c0-0.1,0-0.3-0.1-0.4
	c0-0.1-0.1-0.2-0.2-0.3c-0.1-0.1-0.2-0.2-0.3-0.2c-0.1-0.1-0.2-0.2-0.4-0.2l-0.4-0.2c-0.4-0.2-0.6-0.5-0.8-0.7
	c-0.2-0.3-0.3-0.6-0.3-1c0-0.2,0-0.4,0.1-0.6c0.1-0.2,0.2-0.3,0.4-0.5c0.2-0.1,0.3-0.2,0.5-0.3c0.2-0.1,0.4-0.1,0.6-0.1
	c0.2,0,0.4,0,0.6,0.1c0.2,0,0.3,0.1,0.4,0.2c0.1,0.1,0.2,0.1,0.3,0.2c0.1,0.1,0.1,0.1,0.2,0.2L118.8,54.9z M122.9,54.6h-1.2v3.2
	c0,0.4,0.1,0.7,0.2,0.8c0.1,0.1,0.3,0.2,0.5,0.2c0.1,0,0.3,0,0.4-0.1c0.1,0,0.2-0.1,0.2-0.1l0.1,0.8c0,0-0.1,0.1-0.3,0.1
	c-0.2,0.1-0.4,0.1-0.6,0.1c-0.5,0-0.9-0.1-1.1-0.4c-0.2-0.3-0.4-0.7-0.4-1.4v-3.3H120v-0.6l0.7-0.1l0.1-1.6h0.9v1.6h1.4L122.9,54.6z
	 M126.5,54.6c0,0-0.1,0-0.2-0.1s-0.2,0-0.3,0c-0.3,0-0.5,0.1-0.7,0.2c-0.2,0.2-0.3,0.3-0.4,0.5v4.2h-1v-5.7h0.9v0.8h0
	c0-0.1,0.1-0.2,0.2-0.3s0.1-0.2,0.2-0.3c0.1-0.1,0.2-0.1,0.3-0.2c0.1,0,0.3-0.1,0.5-0.1c0.1,0,0.2,0,0.3,0c0.1,0,0.1,0,0.2,0.1
	L126.5,54.6z M131.3,53.8l-1.8,6c-0.2,0.7-0.5,1.2-0.8,1.6c-0.3,0.4-0.7,0.5-1.3,0.5c-0.1,0-0.2,0-0.3,0c-0.1,0-0.1,0-0.2-0.1V61
	c0,0,0.1,0,0.2,0.1c0.1,0,0.1,0,0.2,0c0.3,0,0.6-0.1,0.8-0.3c0.2-0.2,0.3-0.5,0.5-1l0.1-0.3l-1.8-5.7h1l0.9,3.2
	c0.1,0.3,0.2,0.6,0.2,0.9c0.1,0.3,0.1,0.5,0.1,0.8h0c0-0.2,0.1-0.5,0.1-0.7c0.1-0.3,0.1-0.6,0.2-0.9l0.8-3.2H131.3z M65.6,66.6h-1.2
	v4.9h-1v-4.9h-0.7v-0.6l0.7-0.1v-1.1c0-0.3,0-0.6,0.1-0.8c0.1-0.2,0.2-0.4,0.3-0.5c0.1-0.1,0.3-0.2,0.5-0.3s0.4-0.1,0.6-0.1
	c0.2,0,0.4,0,0.5,0.1s0.2,0.1,0.3,0.1l-0.2,0.8c0,0-0.1-0.1-0.2-0.1c-0.1,0-0.2-0.1-0.3-0.1c-0.2,0-0.4,0.1-0.5,0.2
	c-0.1,0.1-0.2,0.4-0.2,0.8v1h1.3L65.6,66.6z M66.2,68.6c0-0.5,0.1-1,0.2-1.4c0.1-0.4,0.3-0.7,0.5-0.9c0.2-0.2,0.5-0.4,0.7-0.5
	c0.3-0.1,0.6-0.2,0.9-0.2c0.3,0,0.6,0.1,0.9,0.2c0.3,0.1,0.5,0.3,0.7,0.5c0.2,0.2,0.4,0.6,0.5,0.9c0.1,0.4,0.2,0.8,0.2,1.4
	c0,0.5-0.1,1-0.2,1.4c-0.1,0.4-0.3,0.7-0.5,0.9c-0.2,0.2-0.5,0.4-0.7,0.5s-0.6,0.2-0.9,0.2c-0.3,0-0.6-0.1-0.9-0.2s-0.5-0.3-0.7-0.5
	c-0.2-0.2-0.4-0.6-0.5-0.9C66.2,69.6,66.2,69.2,66.2,68.6z M69.7,68.6c0-0.8-0.1-1.3-0.3-1.7c-0.2-0.3-0.5-0.5-0.9-0.5
	c-0.4,0-0.7,0.2-0.9,0.5c-0.2,0.3-0.3,0.9-0.3,1.7c0,0.8,0.1,1.3,0.3,1.6s0.5,0.5,0.9,0.5c0.4,0,0.7-0.2,0.9-0.5
	C69.6,69.9,69.7,69.4,69.7,68.6z M74.4,66.6c0,0-0.1,0-0.2-0.1c-0.1,0-0.2,0-0.3,0c-0.3,0-0.5,0.1-0.7,0.2c-0.2,0.2-0.3,0.3-0.4,0.5
	v4.2h-1v-5.7h0.9v0.8h0c0-0.1,0.1-0.2,0.2-0.3c0.1-0.1,0.1-0.2,0.2-0.3c0.1-0.1,0.2-0.1,0.3-0.2c0.1,0,0.3-0.1,0.5-0.1
	c0.1,0,0.2,0,0.3,0c0.1,0,0.1,0,0.2,0.1L74.4,66.6z M81.8,64.1h-2.9v2.8h2.7v0.8h-2.7v2.9h3.2L82,71.5h-4.2v-8.2h4L81.8,64.1z
	 M86.3,66.9c0,0-0.1-0.1-0.1-0.1c-0.1,0-0.1-0.1-0.2-0.1s-0.2-0.1-0.3-0.1c-0.1,0-0.2-0.1-0.4-0.1c-0.2,0-0.4,0-0.6,0.1
	c-0.2,0.1-0.3,0.2-0.5,0.4c-0.1,0.2-0.2,0.4-0.3,0.6c-0.1,0.3-0.1,0.6-0.1,1c0,0.4,0,0.8,0.1,1.1c0.1,0.3,0.2,0.5,0.3,0.7
	c0.1,0.2,0.3,0.3,0.4,0.4c0.2,0.1,0.4,0.1,0.6,0.1c0.3,0,0.5-0.1,0.7-0.2c0.2-0.1,0.3-0.2,0.3-0.2l0.4,0.7c0,0-0.1,0.1-0.2,0.2
	c-0.1,0.1-0.2,0.1-0.3,0.2c-0.1,0.1-0.3,0.1-0.4,0.2c-0.2,0-0.4,0.1-0.6,0.1c-0.3,0-0.6-0.1-0.9-0.2c-0.3-0.1-0.5-0.3-0.7-0.5
	s-0.4-0.5-0.5-0.9s-0.2-0.9-0.2-1.4c0-0.5,0.1-1,0.2-1.4c0.1-0.4,0.3-0.7,0.6-0.9c0.2-0.2,0.5-0.4,0.8-0.5c0.3-0.1,0.6-0.2,0.9-0.2
	c0.2,0,0.4,0,0.6,0.1c0.2,0,0.3,0.1,0.4,0.1c0.1,0.1,0.2,0.1,0.3,0.2c0.1,0.1,0.1,0.1,0.2,0.2L86.3,66.9z M87.4,68.6
	c0-0.5,0.1-1,0.2-1.4c0.1-0.4,0.3-0.7,0.5-0.9c0.2-0.2,0.5-0.4,0.7-0.5c0.3-0.1,0.6-0.2,0.9-0.2c0.3,0,0.6,0.1,0.9,0.2
	c0.3,0.1,0.5,0.3,0.7,0.5c0.2,0.2,0.4,0.6,0.5,0.9c0.1,0.4,0.2,0.8,0.2,1.4c0,0.5-0.1,1-0.2,1.4c-0.1,0.4-0.3,0.7-0.5,0.9
	c-0.2,0.2-0.5,0.4-0.7,0.5c-0.3,0.1-0.6,0.2-0.9,0.2c-0.3,0-0.6-0.1-0.9-0.2s-0.5-0.3-0.7-0.5c-0.2-0.2-0.4-0.6-0.5-0.9
	C87.4,69.6,87.4,69.2,87.4,68.6z M90.9,68.6c0-0.8-0.1-1.3-0.3-1.7c-0.2-0.3-0.5-0.5-0.9-0.5s-0.7,0.2-0.9,0.5
	c-0.2,0.3-0.3,0.9-0.3,1.7c0,0.8,0.1,1.3,0.3,1.6c0.2,0.3,0.5,0.5,0.9,0.5c0.4,0,0.7-0.2,0.9-0.5C90.8,69.9,90.9,69.4,90.9,68.6z
	 M96.2,71.5v-3.7c0-0.5-0.1-0.8-0.2-1c-0.2-0.2-0.4-0.3-0.7-0.3c-0.3,0-0.5,0.1-0.7,0.2s-0.3,0.3-0.5,0.4v4.4h-1v-5.7H94v0.6h0
	c0,0,0.1-0.1,0.2-0.2c0.1-0.1,0.2-0.2,0.3-0.3s0.3-0.2,0.5-0.2s0.4-0.1,0.6-0.1c0.3,0,0.5,0,0.7,0.1c0.2,0.1,0.4,0.2,0.5,0.4
	c0.1,0.2,0.3,0.4,0.3,0.6c0.1,0.3,0.1,0.6,0.1,1v3.7H96.2z M98.4,68.6c0-0.5,0.1-1,0.2-1.4c0.1-0.4,0.3-0.7,0.5-0.9
	c0.2-0.2,0.5-0.4,0.7-0.5c0.3-0.1,0.6-0.2,0.9-0.2c0.3,0,0.6,0.1,0.9,0.2c0.3,0.1,0.5,0.3,0.7,0.5c0.2,0.2,0.4,0.6,0.5,0.9
	c0.1,0.4,0.2,0.8,0.2,1.4c0,0.5-0.1,1-0.2,1.4c-0.1,0.4-0.3,0.7-0.5,0.9c-0.2,0.2-0.5,0.4-0.7,0.5c-0.3,0.1-0.6,0.2-0.9,0.2
	c-0.3,0-0.6-0.1-0.9-0.2s-0.5-0.3-0.7-0.5c-0.2-0.2-0.4-0.6-0.5-0.9C98.4,69.6,98.4,69.2,98.4,68.6z M101.9,68.6
	c0-0.8-0.1-1.3-0.3-1.7c-0.2-0.3-0.5-0.5-0.9-0.5s-0.7,0.2-0.9,0.5c-0.2,0.3-0.3,0.9-0.3,1.7c0,0.8,0.1,1.3,0.3,1.6s0.5,0.5,0.9,0.5
	c0.4,0,0.7-0.2,0.9-0.5C101.8,69.9,101.9,69.4,101.9,68.6z M107.1,71.5v-3.7c0-0.5-0.1-0.8-0.2-1c-0.1-0.2-0.4-0.3-0.7-0.3
	c-0.2,0-0.3,0-0.4,0.1c-0.1,0-0.2,0.1-0.3,0.1s-0.2,0.1-0.2,0.2c-0.1,0.1-0.1,0.1-0.2,0.2v4.4h-1v-5.7h0.9v0.6h0
	c0-0.1,0.1-0.1,0.2-0.2c0.1-0.1,0.2-0.2,0.3-0.3c0.1-0.1,0.3-0.2,0.4-0.2c0.2-0.1,0.3-0.1,0.5-0.1c0.7,0,1.1,0.3,1.4,0.8
	c0.1-0.1,0.1-0.2,0.2-0.3c0.1-0.1,0.2-0.2,0.3-0.2c0.1-0.1,0.3-0.1,0.4-0.2s0.3-0.1,0.5-0.1c1.2,0,1.7,0.7,1.7,2v3.8h-1v-3.7
	c0-0.5-0.1-0.8-0.2-1c-0.2-0.2-0.4-0.3-0.7-0.3c-0.3,0-0.5,0.1-0.7,0.2c-0.2,0.1-0.3,0.3-0.4,0.4c0,0.1,0,0.2,0,0.3
	c0,0.1,0,0.2,0,0.3v3.8H107.1z M113.5,71.5h-1v-5.7h1V71.5z M113,64.4c-0.2,0-0.4-0.1-0.5-0.2s-0.2-0.3-0.2-0.5
	c0-0.2,0.1-0.4,0.2-0.5s0.3-0.2,0.5-0.2c0.2,0,0.3,0.1,0.5,0.2c0.1,0.1,0.2,0.3,0.2,0.5c0,0.2-0.1,0.4-0.2,0.5
	C113.3,64.3,113.2,64.4,113,64.4z M118.1,66.9c0,0-0.1-0.1-0.1-0.1c-0.1,0-0.1-0.1-0.2-0.1s-0.2-0.1-0.3-0.1c-0.1,0-0.2-0.1-0.4-0.1
	c-0.2,0-0.4,0-0.6,0.1c-0.2,0.1-0.3,0.2-0.5,0.4c-0.1,0.2-0.2,0.4-0.3,0.6c-0.1,0.3-0.1,0.6-0.1,1c0,0.4,0,0.8,0.1,1.1
	c0.1,0.3,0.2,0.5,0.3,0.7c0.1,0.2,0.3,0.3,0.4,0.4c0.2,0.1,0.4,0.1,0.6,0.1c0.3,0,0.5-0.1,0.7-0.2c0.2-0.1,0.3-0.2,0.3-0.2l0.4,0.7
	c0,0-0.1,0.1-0.2,0.2c-0.1,0.1-0.2,0.1-0.3,0.2c-0.1,0.1-0.3,0.1-0.4,0.2c-0.2,0-0.4,0.1-0.6,0.1c-0.3,0-0.6-0.1-0.9-0.2
	c-0.3-0.1-0.5-0.3-0.7-0.5s-0.4-0.5-0.5-0.9c-0.1-0.4-0.2-0.9-0.2-1.4c0-0.5,0.1-1,0.2-1.4c0.1-0.4,0.3-0.7,0.6-0.9
	c0.2-0.2,0.5-0.4,0.8-0.5c0.3-0.1,0.6-0.2,0.9-0.2c0.2,0,0.4,0,0.6,0.1c0.2,0,0.3,0.1,0.4,0.1c0.1,0.1,0.2,0.1,0.3,0.2
	c0.1,0.1,0.1,0.1,0.2,0.2L118.1,66.9z M127.3,71.5h-1.1l-0.7-2.6h-2.5l-0.7,2.6h-1l2.7-8.2h0.8L127.3,71.5z M125.2,68.1l-0.6-2.2
	c-0.1-0.3-0.2-0.6-0.2-0.9c-0.1-0.3-0.1-0.5-0.1-0.7h0c0,0.2,0,0.4-0.1,0.7c-0.1,0.3-0.1,0.5-0.2,0.9l-0.7,2.3H125.2z M130.5,66.6
	h-1.2v4.9h-1v-4.9h-0.7v-0.6l0.7-0.1v-1.1c0-0.3,0-0.6,0.1-0.8c0.1-0.2,0.2-0.4,0.3-0.5c0.1-0.1,0.3-0.2,0.5-0.3s0.4-0.1,0.6-0.1
	c0.2,0,0.4,0,0.5,0.1c0.1,0.1,0.2,0.1,0.3,0.1l-0.2,0.8c0,0-0.1-0.1-0.2-0.1c-0.1,0-0.2-0.1-0.3-0.1c-0.2,0-0.4,0.1-0.5,0.2
	c-0.1,0.1-0.2,0.4-0.2,0.8v1h1.3L130.5,66.6z M133.9,66.6h-1.2v4.9h-1v-4.9h-0.7v-0.6l0.7-0.1v-1.1c0-0.3,0-0.6,0.1-0.8
	c0.1-0.2,0.2-0.4,0.3-0.5c0.1-0.1,0.3-0.2,0.5-0.3s0.4-0.1,0.6-0.1c0.2,0,0.4,0,0.5,0.1c0.1,0.1,0.2,0.1,0.3,0.1l-0.2,0.8
	c0,0-0.1-0.1-0.2-0.1c-0.1,0-0.2-0.1-0.3-0.1c-0.2,0-0.4,0.1-0.5,0.2s-0.2,0.4-0.2,0.8v1h1.3L133.9,66.6z M134.4,70
	c0-0.3,0.1-0.6,0.2-0.8c0.1-0.2,0.3-0.4,0.5-0.5c0.2-0.1,0.5-0.2,0.8-0.3c0.3-0.1,0.6-0.1,0.9-0.1h0.3v-0.5c0-0.5-0.1-0.8-0.3-1
	c-0.2-0.2-0.4-0.3-0.7-0.3c-0.3,0-0.5,0.1-0.7,0.2c-0.2,0.1-0.3,0.2-0.5,0.3l-0.4-0.6c0.1-0.1,0.1-0.1,0.2-0.2
	c0.1-0.1,0.2-0.2,0.4-0.2c0.1-0.1,0.3-0.1,0.5-0.2s0.4-0.1,0.6-0.1c0.6,0,1,0.2,1.3,0.5s0.5,0.8,0.5,1.6v2.6c0,0.2,0,0.5,0,0.7
	c0,0.2,0,0.4,0,0.5h-0.9l0-0.6h0c0,0.1-0.1,0.2-0.1,0.2c-0.1,0.1-0.1,0.2-0.2,0.2c-0.1,0.1-0.2,0.1-0.3,0.2
	c-0.1,0.1-0.3,0.1-0.5,0.1c-0.2,0-0.4,0-0.6-0.1c-0.2-0.1-0.3-0.2-0.5-0.3c-0.1-0.1-0.2-0.3-0.3-0.5C134.5,70.5,134.4,70.3,134.4,70
	z M136.2,70.8c0.1,0,0.3,0,0.4-0.1c0.1,0,0.2-0.1,0.3-0.1c0.1-0.1,0.1-0.1,0.2-0.2c0.1-0.1,0.1-0.1,0.1-0.2V69l-0.3,0
	c-0.5,0-0.8,0.1-1,0.2c-0.2,0.1-0.4,0.4-0.4,0.7c0,0.3,0.1,0.5,0.2,0.7C135.7,70.7,135.9,70.8,136.2,70.8z M140.5,71.5h-1v-5.7h1
	V71.5z M140,64.4c-0.2,0-0.4-0.1-0.5-0.2c-0.1-0.1-0.2-0.3-0.2-0.5c0-0.2,0.1-0.4,0.2-0.5c0.1-0.1,0.3-0.2,0.5-0.2
	c0.2,0,0.3,0.1,0.5,0.2c0.1,0.1,0.2,0.3,0.2,0.5c0,0.2-0.1,0.4-0.2,0.5C140.4,64.3,140.2,64.4,140,64.4z M144.5,66.6
	c0,0-0.1,0-0.2-0.1c-0.1,0-0.2,0-0.3,0c-0.3,0-0.5,0.1-0.7,0.2c-0.2,0.2-0.3,0.3-0.4,0.5v4.2h-1v-5.7h0.9v0.8h0
	c0-0.1,0.1-0.2,0.2-0.3c0.1-0.1,0.1-0.2,0.2-0.3c0.1-0.1,0.2-0.1,0.3-0.2c0.1,0,0.3-0.1,0.5-0.1c0.1,0,0.2,0,0.3,0
	c0.1,0,0.1,0,0.2,0.1L144.5,66.6z M147.8,66.9c-0.1-0.1-0.2-0.2-0.3-0.3c-0.2-0.1-0.4-0.2-0.7-0.2c-0.3,0-0.4,0.1-0.6,0.2
	c-0.1,0.1-0.2,0.3-0.2,0.4c0,0.2,0.1,0.4,0.2,0.5c0.1,0.1,0.3,0.3,0.6,0.4l0.4,0.2c0.4,0.2,0.7,0.5,0.9,0.7c0.2,0.3,0.3,0.6,0.3,1
	c0,0.5-0.2,0.8-0.5,1.1c-0.3,0.3-0.8,0.5-1.4,0.5c-0.2,0-0.4,0-0.6-0.1s-0.3-0.1-0.5-0.2c-0.1-0.1-0.2-0.1-0.3-0.2
	c-0.1-0.1-0.2-0.1-0.2-0.2l0.5-0.8c0,0,0.1,0.1,0.2,0.2c0.1,0.1,0.1,0.1,0.2,0.2s0.2,0.1,0.3,0.1c0.1,0,0.3,0.1,0.4,0.1
	c0.3,0,0.5-0.1,0.7-0.2c0.2-0.1,0.2-0.3,0.2-0.5c0-0.1,0-0.3-0.1-0.4c0-0.1-0.1-0.2-0.2-0.3c-0.1-0.1-0.2-0.2-0.3-0.2
	c-0.1-0.1-0.2-0.2-0.4-0.2l-0.4-0.2c-0.4-0.2-0.6-0.5-0.8-0.7c-0.2-0.3-0.3-0.6-0.3-1c0-0.2,0-0.4,0.1-0.6c0.1-0.2,0.2-0.3,0.4-0.5
	c0.2-0.1,0.3-0.2,0.5-0.3c0.2-0.1,0.4-0.1,0.6-0.1c0.2,0,0.4,0,0.6,0.1c0.2,0,0.3,0.1,0.4,0.2c0.1,0.1,0.2,0.1,0.3,0.2
	c0.1,0.1,0.1,0.1,0.2,0.2L147.8,66.9z M62.8,82c0-0.3,0.1-0.6,0.2-0.8s0.3-0.4,0.5-0.5c0.2-0.1,0.5-0.2,0.8-0.3
	c0.3-0.1,0.6-0.1,0.9-0.1h0.3v-0.5c0-0.5-0.1-0.8-0.3-1c-0.2-0.2-0.4-0.3-0.7-0.3c-0.3,0-0.5,0.1-0.7,0.2c-0.2,0.1-0.3,0.2-0.5,0.3
	L63,78.3c0.1-0.1,0.1-0.1,0.2-0.2c0.1-0.1,0.2-0.2,0.4-0.2s0.3-0.1,0.5-0.2c0.2,0,0.4-0.1,0.6-0.1c0.6,0,1,0.2,1.3,0.5
	c0.3,0.3,0.5,0.8,0.5,1.6v2.6c0,0.2,0,0.5,0,0.7c0,0.2,0,0.4,0,0.5h-0.9l0-0.6h0c0,0.1-0.1,0.2-0.1,0.2c-0.1,0.1-0.1,0.2-0.2,0.2
	c-0.1,0.1-0.2,0.1-0.3,0.2c-0.1,0.1-0.3,0.1-0.5,0.1c-0.2,0-0.4,0-0.6-0.1c-0.2-0.1-0.3-0.2-0.5-0.3c-0.1-0.1-0.2-0.3-0.3-0.5
	C62.9,82.5,62.8,82.3,62.8,82z M64.6,82.8c0.1,0,0.3,0,0.4-0.1c0.1,0,0.2-0.1,0.3-0.1c0.1-0.1,0.1-0.1,0.2-0.2
	c0.1-0.1,0.1-0.1,0.1-0.2V81l-0.3,0c-0.5,0-0.8,0.1-1,0.2c-0.2,0.1-0.4,0.4-0.4,0.7c0,0.3,0.1,0.5,0.2,0.7
	C64.1,82.7,64.3,82.8,64.6,82.8z M71,83.5v-3.7c0-0.5-0.1-0.8-0.2-1c-0.2-0.2-0.4-0.3-0.7-0.3c-0.3,0-0.5,0.1-0.7,0.2
	s-0.3,0.3-0.5,0.4v4.4h-1v-5.7h0.9v0.6h0c0,0,0.1-0.1,0.2-0.2c0.1-0.1,0.2-0.2,0.3-0.3s0.3-0.2,0.5-0.2s0.4-0.1,0.6-0.1
	c0.3,0,0.5,0,0.7,0.1c0.2,0.1,0.4,0.2,0.5,0.4c0.1,0.2,0.3,0.4,0.3,0.6c0.1,0.3,0.1,0.6,0.1,1v3.7H71z M73.2,80.7
	c0-0.6,0.1-1.1,0.2-1.5c0.2-0.4,0.3-0.7,0.6-0.9c0.2-0.2,0.5-0.4,0.8-0.5c0.3-0.1,0.6-0.1,0.9-0.1c0.2,0,0.3,0,0.5,0
	c0.1,0,0.2,0.1,0.3,0.1v-2.7l1-0.1v8.5h-0.9v-0.6h0c0,0-0.1,0.1-0.1,0.2c-0.1,0.1-0.2,0.2-0.3,0.2s-0.2,0.2-0.4,0.2
	c-0.2,0.1-0.4,0.1-0.6,0.1c-0.3,0-0.5-0.1-0.8-0.2c-0.2-0.1-0.5-0.3-0.6-0.5c-0.2-0.2-0.3-0.5-0.4-0.9
	C73.2,81.7,73.2,81.2,73.2,80.7z M75.4,82.8c0.2,0,0.3,0,0.4-0.1c0.1,0,0.2-0.1,0.3-0.1c0.1-0.1,0.2-0.1,0.2-0.2
	c0.1-0.1,0.1-0.1,0.1-0.2v-3.5c-0.1-0.1-0.2-0.1-0.3-0.1c-0.1,0-0.3-0.1-0.4-0.1c-0.2,0-0.4,0-0.6,0.1c-0.2,0.1-0.4,0.2-0.5,0.4
	s-0.3,0.4-0.3,0.7c-0.1,0.3-0.1,0.6-0.1,1c0,0.4,0,0.7,0.1,1c0.1,0.3,0.2,0.5,0.3,0.6c0.1,0.2,0.3,0.3,0.4,0.4
	C75.1,82.7,75.3,82.8,75.4,82.8z M81.3,79.4c0-0.8,0.1-1.4,0.3-2c0.2-0.5,0.4-1,0.8-1.3c0.3-0.3,0.7-0.6,1.1-0.7
	c0.4-0.2,0.8-0.2,1.2-0.2c0.3,0,0.6,0,0.8,0.1c0.2,0.1,0.4,0.1,0.6,0.2s0.3,0.2,0.4,0.3c0.1,0.1,0.2,0.2,0.2,0.2L86,76.6
	c0,0-0.1-0.1-0.2-0.2c-0.1-0.1-0.2-0.1-0.3-0.2c-0.1-0.1-0.2-0.1-0.4-0.2C85,76,84.9,76,84.7,76c-0.3,0-0.6,0.1-0.9,0.2
	s-0.5,0.3-0.7,0.6c-0.2,0.3-0.4,0.6-0.5,1c-0.1,0.4-0.2,0.9-0.2,1.5c0,0.6,0.1,1.2,0.2,1.6c0.1,0.4,0.2,0.8,0.4,1.1
	c0.2,0.3,0.4,0.5,0.7,0.6c0.3,0.1,0.6,0.2,0.9,0.2c0.2,0,0.4,0,0.6-0.1c0.2,0,0.3-0.1,0.4-0.2s0.2-0.1,0.3-0.2
	c0.1-0.1,0.1-0.1,0.2-0.2l0.4,0.7c-0.1,0.1-0.1,0.1-0.2,0.2c-0.1,0.1-0.2,0.2-0.4,0.3c-0.2,0.1-0.4,0.2-0.6,0.2
	c-0.2,0.1-0.5,0.1-0.8,0.1c-0.5,0-0.9-0.1-1.3-0.2c-0.4-0.2-0.7-0.4-1-0.7c-0.3-0.3-0.5-0.8-0.6-1.3C81.4,80.8,81.3,80.1,81.3,79.4z
	 M88.5,82.1c0,0.2,0,0.4,0.1,0.5c0.1,0.1,0.2,0.1,0.4,0.1c0.1,0,0.2,0,0.2,0s0.1,0,0.1,0l0.1,0.7c0,0-0.1,0.1-0.3,0.1
	c-0.1,0-0.3,0.1-0.5,0.1c-0.3,0-0.6-0.1-0.8-0.3c-0.2-0.2-0.3-0.6-0.3-1.1v-7.2l1-0.1V82.1z M91.3,83.5h-1v-5.7h1V83.5z M90.8,76.4
	c-0.2,0-0.4-0.1-0.5-0.2c-0.1-0.1-0.2-0.3-0.2-0.5c0-0.2,0.1-0.4,0.2-0.5c0.1-0.1,0.3-0.2,0.5-0.2c0.2,0,0.3,0.1,0.5,0.2
	s0.2,0.3,0.2,0.5c0,0.2-0.1,0.4-0.2,0.5S91,76.4,90.8,76.4z M95.7,83.5v-3.7c0-0.5-0.1-0.8-0.2-1c-0.1-0.2-0.4-0.3-0.7-0.3
	c-0.2,0-0.3,0-0.4,0.1c-0.1,0-0.2,0.1-0.3,0.1s-0.2,0.1-0.2,0.2c-0.1,0.1-0.1,0.1-0.2,0.2v4.4h-1v-5.7h0.9v0.6h0
	c0-0.1,0.1-0.1,0.2-0.2c0.1-0.1,0.2-0.2,0.3-0.3c0.1-0.1,0.3-0.2,0.4-0.2c0.2-0.1,0.3-0.1,0.5-0.1c0.7,0,1.1,0.3,1.4,0.8
	c0.1-0.1,0.1-0.2,0.2-0.3c0.1-0.1,0.2-0.2,0.3-0.2c0.1-0.1,0.3-0.1,0.4-0.2c0.2,0,0.3-0.1,0.5-0.1c1.2,0,1.7,0.7,1.7,2v3.8h-1v-3.7
	c0-0.5-0.1-0.8-0.2-1c-0.2-0.2-0.4-0.3-0.7-0.3c-0.3,0-0.5,0.1-0.7,0.2c-0.2,0.1-0.3,0.3-0.4,0.4c0,0.1,0,0.2,0,0.3
	c0,0.1,0,0.2,0,0.3v3.8H95.7z M100.8,82c0-0.3,0.1-0.6,0.2-0.8c0.1-0.2,0.3-0.4,0.5-0.5c0.2-0.1,0.5-0.2,0.8-0.3
	c0.3-0.1,0.6-0.1,0.9-0.1h0.3v-0.5c0-0.5-0.1-0.8-0.3-1c-0.2-0.2-0.4-0.3-0.7-0.3c-0.3,0-0.5,0.1-0.7,0.2c-0.2,0.1-0.3,0.2-0.5,0.3
	l-0.4-0.6c0.1-0.1,0.1-0.1,0.2-0.2c0.1-0.1,0.2-0.2,0.4-0.2s0.3-0.1,0.5-0.2c0.2,0,0.4-0.1,0.6-0.1c0.6,0,1,0.2,1.3,0.5
	c0.3,0.3,0.5,0.8,0.5,1.6v2.6c0,0.2,0,0.5,0,0.7c0,0.2,0,0.4,0,0.5h-0.9l0-0.6h0c0,0.1-0.1,0.2-0.1,0.2c-0.1,0.1-0.1,0.2-0.2,0.2
	c-0.1,0.1-0.2,0.1-0.3,0.2c-0.1,0.1-0.3,0.1-0.5,0.1c-0.2,0-0.4,0-0.6-0.1c-0.2-0.1-0.3-0.2-0.5-0.3c-0.1-0.1-0.2-0.3-0.3-0.5
	C100.8,82.5,100.8,82.3,100.8,82z M102.5,82.8c0.1,0,0.3,0,0.4-0.1c0.1,0,0.2-0.1,0.3-0.1c0.1-0.1,0.1-0.1,0.2-0.2
	c0.1-0.1,0.1-0.1,0.1-0.2V81l-0.3,0c-0.5,0-0.8,0.1-1,0.2s-0.4,0.4-0.4,0.7c0,0.3,0.1,0.5,0.2,0.7C102.1,82.7,102.3,82.8,102.5,82.8
	z M108.3,78.6h-1.2v3.2c0,0.4,0.1,0.7,0.2,0.8c0.1,0.1,0.3,0.2,0.5,0.2c0.1,0,0.3,0,0.4-0.1c0.1,0,0.2-0.1,0.2-0.1l0.1,0.8
	c0,0-0.1,0.1-0.3,0.1c-0.2,0.1-0.4,0.1-0.6,0.1c-0.5,0-0.9-0.1-1.1-0.4c-0.2-0.3-0.4-0.7-0.4-1.4v-3.3h-0.7v-0.6l0.7-0.1l0.1-1.6
	h0.9v1.6h1.4L108.3,78.6z M113,79.7c0,0.2,0,0.5,0,0.6c0,0.2,0,0.3,0,0.5H110c0,0.7,0.2,1.2,0.4,1.5c0.3,0.3,0.6,0.5,1.1,0.5
	c0.2,0,0.3,0,0.5-0.1c0.1,0,0.3-0.1,0.4-0.1c0.1-0.1,0.2-0.1,0.2-0.2c0.1-0.1,0.1-0.1,0.1-0.1l0.4,0.7c0,0-0.1,0.1-0.2,0.2
	c-0.1,0.1-0.2,0.2-0.3,0.2c-0.1,0.1-0.3,0.1-0.5,0.2c-0.2,0.1-0.4,0.1-0.7,0.1c-0.4,0-0.7-0.1-1-0.2c-0.3-0.1-0.5-0.3-0.7-0.6
	s-0.4-0.6-0.5-1c-0.1-0.4-0.2-0.8-0.2-1.4c0-0.5,0.1-0.9,0.2-1.3c0.1-0.4,0.3-0.7,0.5-0.9c0.2-0.2,0.4-0.4,0.7-0.5
	c0.3-0.1,0.5-0.2,0.8-0.2c0.5,0,1,0.2,1.3,0.5C112.8,78.5,113,79,113,79.7z M111.2,78.4c-0.3,0-0.6,0.1-0.8,0.4s-0.3,0.7-0.4,1.2
	h2.1c0,0,0-0.1,0-0.2c0-0.1,0-0.2,0-0.2c0-0.4-0.1-0.7-0.2-0.9C111.7,78.5,111.5,78.4,111.2,78.4z M122.1,83.5h-1.1l-0.7-2.6h-2.5
	l-0.7,2.6h-1l2.7-8.2h0.8L122.1,83.5z M120,80.1l-0.6-2.2c-0.1-0.3-0.2-0.6-0.2-0.9c-0.1-0.3-0.1-0.5-0.1-0.7h0c0,0.2,0,0.4-0.1,0.7
	c-0.1,0.3-0.1,0.5-0.2,0.9l-0.7,2.3H120z M126,78.9c0,0-0.1-0.1-0.1-0.1c-0.1,0-0.1-0.1-0.2-0.1s-0.2-0.1-0.3-0.1
	c-0.1,0-0.2-0.1-0.4-0.1c-0.2,0-0.4,0-0.6,0.1c-0.2,0.1-0.3,0.2-0.5,0.4c-0.1,0.2-0.2,0.4-0.3,0.6c-0.1,0.3-0.1,0.6-0.1,1
	c0,0.4,0,0.8,0.1,1.1c0.1,0.3,0.2,0.5,0.3,0.7c0.1,0.2,0.3,0.3,0.4,0.4c0.2,0.1,0.4,0.1,0.6,0.1c0.3,0,0.5-0.1,0.7-0.2
	c0.2-0.1,0.3-0.2,0.3-0.2l0.4,0.7c0,0-0.1,0.1-0.2,0.2c-0.1,0.1-0.2,0.1-0.3,0.2c-0.1,0.1-0.3,0.1-0.4,0.2c-0.2,0-0.4,0.1-0.6,0.1
	c-0.3,0-0.6-0.1-0.9-0.2c-0.3-0.1-0.5-0.3-0.7-0.5s-0.4-0.5-0.5-0.9c-0.1-0.4-0.2-0.9-0.2-1.4c0-0.5,0.1-1,0.2-1.4
	c0.1-0.4,0.3-0.7,0.6-0.9c0.2-0.2,0.5-0.4,0.8-0.5c0.3-0.1,0.6-0.2,0.9-0.2c0.2,0,0.4,0,0.6,0.1c0.2,0,0.3,0.1,0.4,0.1
	c0.1,0.1,0.2,0.1,0.3,0.2c0.1,0.1,0.1,0.1,0.2,0.2L126,78.9z M129.9,78.6h-1.2v3.2c0,0.4,0.1,0.7,0.2,0.8c0.1,0.1,0.3,0.2,0.5,0.2
	c0.1,0,0.3,0,0.4-0.1c0.1,0,0.2-0.1,0.2-0.1l0.1,0.8c0,0-0.1,0.1-0.3,0.1c-0.2,0.1-0.4,0.1-0.6,0.1c-0.5,0-0.9-0.1-1.1-0.4
	c-0.2-0.3-0.4-0.7-0.4-1.4v-3.3H127v-0.6l0.7-0.1l0.1-1.6h0.9v1.6h1.4L129.9,78.6z M132,83.5h-1v-5.7h1V83.5z M131.5,76.4
	c-0.2,0-0.4-0.1-0.5-0.2c-0.1-0.1-0.2-0.3-0.2-0.5c0-0.2,0.1-0.4,0.2-0.5c0.1-0.1,0.3-0.2,0.5-0.2c0.2,0,0.3,0.1,0.5,0.2
	s0.2,0.3,0.2,0.5c0,0.2-0.1,0.4-0.2,0.5S131.7,76.4,131.5,76.4z M133.2,80.6c0-0.5,0.1-1,0.2-1.4c0.1-0.4,0.3-0.7,0.5-0.9
	c0.2-0.2,0.5-0.4,0.7-0.5c0.3-0.1,0.6-0.2,0.9-0.2c0.3,0,0.6,0.1,0.9,0.2c0.3,0.1,0.5,0.3,0.7,0.5c0.2,0.2,0.4,0.6,0.5,0.9
	c0.1,0.4,0.2,0.8,0.2,1.4c0,0.5-0.1,1-0.2,1.4s-0.3,0.7-0.5,0.9c-0.2,0.2-0.5,0.4-0.7,0.5c-0.3,0.1-0.6,0.2-0.9,0.2
	c-0.3,0-0.6-0.1-0.9-0.2c-0.3-0.1-0.5-0.3-0.7-0.5c-0.2-0.2-0.4-0.6-0.5-0.9C133.2,81.6,133.2,81.2,133.2,80.6z M136.7,80.6
	c0-0.8-0.1-1.3-0.3-1.7c-0.2-0.3-0.5-0.5-0.9-0.5s-0.7,0.2-0.9,0.5c-0.2,0.3-0.3,0.9-0.3,1.7c0,0.8,0.1,1.3,0.3,1.6
	c0.2,0.3,0.5,0.5,0.9,0.5s0.7-0.2,0.9-0.5C136.6,81.9,136.7,81.4,136.7,80.6z M142,83.5v-3.7c0-0.5-0.1-0.8-0.2-1
	c-0.2-0.2-0.4-0.3-0.7-0.3c-0.3,0-0.5,0.1-0.7,0.2s-0.3,0.3-0.5,0.4v4.4h-1v-5.7h0.9v0.6h0c0,0,0.1-0.1,0.2-0.2
	c0.1-0.1,0.2-0.2,0.3-0.3c0.1-0.1,0.3-0.2,0.5-0.2s0.4-0.1,0.6-0.1c0.3,0,0.5,0,0.7,0.1c0.2,0.1,0.4,0.2,0.5,0.4
	c0.1,0.2,0.3,0.4,0.3,0.6c0.1,0.3,0.1,0.6,0.1,1v3.7H142z"/>
<polygon class="st1" points="54.4,91.5 55.9,91.5 55.9,111.5 52.4,111.5 52.4,91.5 "/>
<polygon class="st2" points="54.4,71.4 55.9,71.4 55.9,91.5 52.4,91.5 52.4,71.4 "/>
<g>
	<path d="M43.3,58.5c1,1.6,1.8,1.6,3,1.6c-1-0.8-1.7-1.8-2-2.3l-1.9-3c-0.2-0.9-0.7-1.8-1.4-2.4c0.2-0.1,0.4-0.2,0.6-0.3
		c-1.2,0-2.4-0.6-3.1-0.6c-0.4,0-0.7,0.3-0.7,0.6c0,0.4,0.4,0.8,1.1,0.8c0.2,0,0.4,0,0.6-0.1c0.4,0.5,0.7,1,0.7,1.7
		c0,1.3-1.6,2.3-3.2,2.3c-0.1,0-0.2,0-0.3,0c-0.1-0.3-0.6-0.9-0.6-1.5c0-1,0.7-1.9,0.7-2.9c0-0.6-0.3-1-0.4-1.2
		c0.2-0.2,0.4-0.4,0.5-0.6c-0.1,0-0.2,0.1-0.4,0.1c-0.8,0-1.4-0.2-2-0.2c-0.3,0-0.4,0.1-0.4,0.2c0,0,0,0.1,0,0.1
		c-0.1-0.1-0.2-0.1-0.4-0.1c-0.2,0-0.4-0.1-0.6-0.1c-0.7,0-1,0.3-1,0.6c0,0.2,0.2,0.6,0.4,0.9c0.3-0.1,0.6-0.2,0.8-0.2
		c0.4,0,0.7,0.4,0.9,0.8c-0.3,0-0.3,0-0.6,0c-0.7,0-1.2-0.3-1.3-0.3c0,0,0,0,0,0c0,0.1,0.2,0.4,0.6,0.5c0.5,0.2,1.3,0.3,1.4,0.3
		c0,0-0.1,0.3-0.3,0.3c0,0-0.1,0-0.1,0c-0.5-0.1-0.7-0.2-1.4-0.4c0,0,0,0,0,0c0,0.3,0.7,0.9,1.4,1.1c-0.5,0.7-1.2,1.4-1.5,2.4
		c-0.1,0-0.2,0-0.3,0c-1.6,0-3.2-1-3.2-2.3c0-0.7,0.3-1.2,0.7-1.7c0.2,0,0.4,0.1,0.6,0.1c0.7,0,1.1-0.4,1.1-0.8
		c0-0.3-0.3-0.6-0.7-0.6c-0.7,0-1.9,0.6-3.1,0.6c0.1,0.1,0.3,0.2,0.6,0.3c-0.7,0.6-1.2,1.5-1.4,2.4l-1.9,3c-0.3,0.5-1,1.5-2,2.3
		c1.2,0,2,0,3-1.6l1-1.5c0.1,0.2,0.2,0.4,0.3,0.6l-1.9,3.1c-0.3,0.5-1,1.5-2,2.3c1.2,0,2,0,3-1.6l1.6-2.6c0.1,0.1,0.3,0.3,0.4,0.4
		l-2.3,3.7c-0.3,0.5-1,1.5-2,2.3c1.2,0,2,0,3-1.6l2.3-3.6c0.1,0.1,0.3,0.2,0.5,0.3l-2.8,4.4c-0.3,0.5-1,1.5-2,2.3c1.2,0,2,0,3-1.6
		l2.8-4.6c0.2,0.1,0.3,0.1,0.5,0.2l-3.2,5.1c-0.3,0.5-1,1.5-2,2.3c1.2,0,2,0,3-1.6l3.4-5.5c0,0,0.1,0,0.1,0c0.1,0.3,0.2,0.6,0.2,0.8
		c0,1.7-1.1,3.2-2.5,4.4c0.1,0,0.2,0.1,0.4,0.1c0.3,0,0.5,0,0.6,0c-0.3,0.7-1,1.6-1.3,2.1c-0.4-0.1-1.1-0.1-1.5-0.1
		c-0.4,0-0.5,0.3-0.5,0.5c0,0.4,0.2,0.7,0.4,0.9c0.1-0.2,0.2-0.5,1.1-0.5c0,0,0,0,0.1,0c-0.2,0.3-1,0.9-1,1.4c0,0.3,0.4,0.8,0.8,0.8
		c0-0.1,0-0.2,0-0.3c0-0.4,0.3-0.9,0.6-1.2c0,0.1,0,0.1,0,0.2c0,0.9,0.1,1.4,0.7,1.4c0.3,0,0.5-0.2,0.6-0.2C31,71,31,70.7,31,70.2
		c0-0.1,0-0.3,0-0.5c0-0.1,0-0.3,0-0.4c0.2,0,0.3,0,0.5,0c0,0,0.8-0.1,1,0.4c0.2-0.2,0.6-0.5,0.6-0.8c0-0.2-0.1-0.5-0.5-0.5
		c-0.2,0-0.7,0.1-1.1,0.1c0.1-0.3,0.6-1,1.1-1.6c0.1,0.2,0.2,0.4,0.4,0.6c0-0.4,0.2-1.5,0.8-2.1c0.1,0.4,0.2,0.9,0.2,1.8
		c0,2.3-0.6,4-1.7,4.4c0.2,0.3,0.5,0.5,0.8,0.5c0.4,0,0.7-0.5,0.9-1c0.1,0.3,0.5,1.2,0.8,1.2s0.7-0.8,0.8-1.2c0.2,0.5,0.5,1,0.9,1
		c0.3,0,0.7-0.2,0.8-0.5c-1.2-0.3-1.7-2-1.7-4.4c0-1,0.1-1.4,0.2-1.8c0.6,0.7,0.8,1.8,0.8,2.1c0.2-0.2,0.3-0.4,0.4-0.6
		c0.4,0.5,1,1.3,1.1,1.6c-0.4,0-0.9-0.1-1.1-0.1c-0.4,0-0.5,0.2-0.5,0.5c0,0.3,0.3,0.6,0.6,0.8c0.2-0.4,1-0.4,1-0.4
		c0.2,0,0.2,0,0.5,0c0,0.1,0,0.3,0,0.4c0,0.2,0,0.3,0,0.5c0,0.5,0,0.8-0.4,1.2c0.1,0,0.3,0.2,0.6,0.2c0.6,0,0.7-0.4,0.7-1.4
		c0-0.1,0-0.1,0-0.2c0.3,0.3,0.6,0.8,0.6,1.2c0,0.1,0,0.2,0,0.3c0.5,0,0.8-0.5,0.8-0.8c0-0.5-0.7-1.1-1-1.4c0,0,0.1,0,0.1,0
		c0.8,0,1,0.3,1.1,0.5c0.2-0.2,0.4-0.5,0.4-0.9c0-0.2,0-0.5-0.5-0.5c-0.4,0-1.1,0.1-1.5,0.1c-0.3-0.5-1-1.4-1.3-2.1
		c0.1,0,0.3,0,0.6,0c0.1,0,0.3,0,0.4-0.1c-1.4-1.2-2.5-2.7-2.5-4.4c0-0.3,0.1-0.6,0.2-0.8c0,0,0.1,0,0.1,0l3.4,5.5
		c1,1.6,1.8,1.6,3,1.6c-1-0.8-1.7-1.8-2-2.3l-3.2-5.1c0.2-0.1,0.3-0.1,0.5-0.2l2.8,4.6c1,1.6,1.8,1.6,3,1.6c-1-0.8-1.7-1.7-2-2.3
		L39.4,60c0.2-0.1,0.3-0.2,0.5-0.3l2.3,3.6c1,1.6,1.8,1.6,3,1.6c-1-0.8-1.7-1.7-2-2.3L40.9,59c0.1-0.1,0.3-0.3,0.4-0.4l1.6,2.6
		c1,1.6,1.8,1.6,3,1.6c-1-0.8-1.7-1.8-2-2.3l-1.9-3.1c0.1-0.2,0.2-0.4,0.3-0.6L43.3,58.5z M28,55c0-1.1,0.8-2,1.1-2.3
		c0.1,0,0.1,0,0.2,0c-0.3,0.4-0.9,1-0.9,1.9c0,1.7,1.8,3.1,3.8,3.1c0,0.1,0,0.3,0,0.4c0,0.2,0,0.5,0,0.7C30,58.8,28,57,28,55z
		 M31.1,68.7L31.1,68.7L31.1,68.7c0.7,0,1,0,1.2,0c0.1,0,0.2,0,0.3,0c0.2,0,0.3,0,0.3,0.2c0,0.1-0.2,0.4-0.3,0.5
		c-0.2-0.2-0.6-0.3-1-0.3c-0.2,0-0.5,0-0.7,0.1l0,0l0,0l0,0.1c0,0.1,0,0.3,0,0.5l0,0.2l0,0.3c0,0.5,0.1,0.9,0.3,1.1c0,0-0.1,0-0.2,0
		c-0.3,0-0.4-0.1-0.4-1.1c0-0.2,0-0.4,0-0.5l0-0.2l0,0c-0.5,0.4-1,1.1-1.1,1.6C29.1,71,29,70.8,29,70.6c0-0.3,0.4-0.7,0.9-1.2
		l0.3-0.3l0,0l-0.1,0c-0.1,0-0.3-0.1-0.5-0.1c-0.5,0-0.9,0.1-1.1,0.3c-0.1-0.1-0.1-0.4-0.1-0.5c0-0.1,0-0.2,0.1-0.2c0,0,0.1,0,0.2,0
		h0c0.6,0,1.3,0.1,1.6,0.2l0,0l0,0c0-0.1,1.2-1.6,1.5-2.4c0.1,0,0.1,0,0.2,0c0.2,0,0.3,0.2,0.4,0.4C31.7,67.5,31.2,68.2,31.1,68.7z
		 M37.3,66.3c0.1,0,0.2,0,0.2,0c0.3,0.8,1.4,2.3,1.5,2.4l0,0l0,0c0.3,0,1-0.2,1.6-0.2h0c0.1,0,0.1,0,0.2,0c0,0,0.1,0.1,0.1,0.2
		c0,0.1-0.1,0.4-0.1,0.5c-0.2-0.2-0.6-0.3-1.1-0.3c-0.2,0-0.4,0-0.5,0.1l0,0l0,0l0.3,0.3c0.5,0.5,0.9,0.9,0.9,1.2
		c0,0.2-0.2,0.4-0.3,0.5c0-0.5-0.6-1.2-1.1-1.6l0,0l0,0.2c0,0.1,0,0.3,0,0.5c0,1-0.1,1.1-0.4,1.1c-0.1,0-0.1,0-0.2,0
		c0.2-0.2,0.3-0.5,0.3-1.1l0-0.3l0-0.2c0-0.2,0-0.4,0-0.5l0-0.1l-0.1,0c-0.2,0-0.5-0.1-0.7-0.1c-0.5,0-0.8,0-1,0.3
		c-0.2-0.1-0.3-0.3-0.3-0.5c0-0.2,0.1-0.2,0.3-0.2c0.1,0,0.2,0,0.3,0c0.2,0,0.5,0.1,1.2,0.1h0l0,0c-0.2-0.5-0.6-1.1-1.3-2
		C37,66.4,37,66.3,37.3,66.3z M34.6,52.9c-0.1-0.3-0.2-0.6-0.4-0.8c-0.2-0.2-0.5-0.5-0.9-0.5c-0.2,0-0.5,0.1-0.7,0.2
		c-0.1-0.1-0.2-0.4-0.2-0.6c0-0.1,0.2-0.3,0.7-0.3c1,0,1.7,0.5,1.7,1.3C34.8,52.5,34.7,52.7,34.6,52.9z M35.1,51.9
		c0-0.2-0.1-0.4-0.2-0.6c0-0.2,0.1-0.4,0.4-0.2c-0.2,0.2,0,0.5,0,0.5s0.4-0.2,0.3-0.4C36,51.3,35.6,52,35.1,51.9z M37.1,58.8
		c0-0.2,0-0.5,0-0.7c0-0.1,0-0.3,0-0.4c2,0,3.8-1.5,3.8-3.1c0-0.8-0.5-1.5-0.9-1.9c0.1,0,0.1,0,0.2,0c0.3,0.3,1.1,1.2,1.1,2.3
		C41.3,56.9,39.3,58.8,37.1,58.8z"/>
</g>
<polygon points="55.9,51.5 55.9,71.5 54.4,71.5 52.4,71.5 52.4,51.5 "/>
</svg>
